<?xml version="1.0" standalone="no"?>
<!DOCTYPE svg PUBLIC "-//W3C//DTD SVG 20010904//EN"
 "http://www.w3.org/TR/2001/REC-SVG-20010904/DTD/svg10.dtd">
<svg version="1.0" xmlns="http://www.w3.org/2000/svg"
 width="998.000000pt" height="998.000000pt" viewBox="0 0 998.000000 998.000000"
 preserveAspectRatio="xMidYMid meet">
<metadata>
Created by potrace 1.11, written by Peter Selinger 2001-2013
</metadata>
<g transform="translate(0.000000,998.000000) scale(0.100000,-0.100000)"
fill="#000000" stroke="none">
<path d="M3196 9971 c5 -5 32 -17 59 -26 57 -19 85 -40 85 -66 0 -10 5 -21 10
-24 6 -3 8 -19 5 -34 -7 -42 21 -61 107 -72 40 -6 120 -16 178 -24 58 -8 173
-16 257 -19 140 -5 153 -4 176 14 14 11 36 20 50 20 13 0 46 12 73 26 67 36
141 37 212 4 53 -25 66 -40 35 -40 -10 0 -47 -14 -83 -31 -54 -25 -82 -32
-160 -36 -57 -3 -101 -11 -110 -19 -9 -7 -40 -20 -70 -28 -30 -9 -80 -24 -110
-35 -30 -11 -80 -23 -110 -26 -30 -4 -80 -15 -110 -25 -30 -10 -71 -21 -90
-25 -19 -4 -44 -16 -56 -26 -14 -14 -42 -21 -90 -25 -86 -8 -121 -23 -207 -91
-37 -30 -88 -63 -112 -74 -24 -11 -47 -24 -50 -29 -3 -6 -16 -10 -28 -10 -12
0 -33 -7 -47 -15 -24 -14 -77 -40 -146 -70 -16 -8 -47 -28 -68 -45 -37 -29
-79 -38 -101 -22 -6 4 -18 19 -28 35 -13 19 -26 27 -47 27 -29 0 -29 0 -29
-59 1 -70 -4 -81 -51 -115 -88 -63 -105 -68 -207 -61 -87 7 -95 9 -106 31 -9
22 -6 29 23 59 26 27 42 35 69 35 20 0 41 4 48 8 33 21 47 154 17 166 -29 11
-65 6 -71 -10 -3 -9 2 -32 12 -50 17 -31 17 -35 1 -59 -9 -14 -17 -25 -19 -25
-1 -1 -46 -5 -100 -9 -67 -5 -102 -12 -108 -22 -10 -17 -3 -24 42 -38 38 -12
49 -35 49 -98 0 -15 10 -33 25 -45 17 -13 24 -26 21 -41 -3 -12 -7 -34 -10
-49 -6 -26 -81 -78 -150 -104 -31 -11 -35 -15 -61 -76 -18 -39 -108 -113 -151
-124 -28 -7 -44 -31 -44 -69 0 -42 -41 -75 -93 -75 -64 0 -70 11 -68 139 2
114 -8 151 -40 151 -12 0 -19 -16 -28 -62 -29 -161 -35 -168 -136 -168 -64 0
-176 -25 -219 -48 -26 -14 -67 -17 -251 -19 -199 -2 -224 -4 -260 -23 -45 -23
-64 -25 -100 -8 -22 10 -25 17 -25 68 0 44 4 61 20 75 11 10 20 30 20 45 0 29
-15 40 -54 40 -20 0 -24 -7 -33 -67 -6 -42 -22 -87 -40 -118 -25 -42 -36 -51
-69 -58 -46 -10 -94 5 -94 29 0 16 29 57 69 99 11 11 23 34 27 50 4 17 13 42
20 56 7 15 16 42 19 60 7 38 30 79 45 79 24 0 8 38 -23 54 -32 17 -33 17 -88
-14 -32 -16 -68 -45 -82 -63 -16 -21 -41 -38 -66 -46 -82 -24 -34 -56 52 -34
97 25 108 -9 31 -103 -23 -29 -47 -68 -54 -88 -11 -35 -17 -39 -78 -51 -18 -4
-45 -13 -60 -21 -15 -8 -56 -14 -94 -14 l-68 0 0 -50 c0 -36 4 -50 14 -50 7 0
25 -15 40 -34 21 -28 37 -37 83 -47 74 -15 222 -5 266 17 26 14 78 19 267 25
129 4 255 12 280 18 63 14 86 13 104 -5 18 -17 21 -54 5 -54 -5 0 -36 -26 -67
-57 -122 -124 -144 -131 -347 -126 -72 2 -163 1 -202 -2 -62 -6 -73 -9 -73
-25 0 -13 15 -26 46 -40 54 -23 70 -41 84 -92 14 -50 57 -84 118 -92 94 -12
143 -100 135 -241 -6 -84 -14 -105 -43 -105 -31 0 -50 33 -50 89 0 47 -4 57
-32 83 -17 16 -44 36 -60 44 -15 8 -28 20 -28 27 0 7 -15 21 -34 29 -47 23
-283 28 -297 7 -5 -8 -9 -43 -8 -79 1 -71 -8 -120 -22 -120 -17 0 12 -41 36
-52 13 -6 29 -24 36 -39 6 -16 14 -29 18 -29 4 0 29 -22 56 -50 28 -27 56 -50
63 -50 22 0 62 -48 62 -74 0 -14 7 -46 16 -71 11 -35 13 -54 5 -78 -6 -18 -13
-45 -16 -60 -3 -15 -13 -31 -23 -34 -28 -10 -72 -66 -78 -99 -7 -36 -59 -104
-80 -104 -7 0 -45 23 -84 51 -66 49 -70 54 -70 91 0 40 -18 72 -69 124 -37 37
-51 31 -51 -20 0 -36 4 -46 20 -51 11 -3 23 -17 26 -31 3 -13 17 -32 29 -42
13 -10 30 -35 38 -54 9 -20 27 -44 42 -54 14 -9 34 -33 44 -53 9 -20 24 -46
31 -58 12 -19 12 -27 -4 -60 -10 -20 -22 -62 -27 -92 -5 -30 -17 -64 -29 -76
-11 -12 -20 -27 -20 -34 0 -7 -11 -31 -24 -54 -15 -27 -26 -66 -30 -112 -5
-53 -14 -81 -37 -116 -16 -25 -29 -58 -29 -73 0 -15 -7 -29 -15 -32 -13 -6
-15 -208 -15 -1770 l0 -1764 26 -6 c18 -5 23 -11 18 -23 -3 -9 -8 -34 -11 -56
-2 -22 -11 -45 -19 -51 -9 -8 -14 -31 -14 -73 0 -63 8 -73 39 -48 39 33 91 41
60 10 -6 -6 -17 -22 -23 -35 -6 -12 -20 -23 -31 -23 -30 0 -45 -20 -45 -60 l0
-36 67 7 c38 4 72 10 78 15 14 14 35 10 35 -6 0 -17 -67 -146 -84 -160 -20
-17 -4 -121 22 -145 16 -15 22 -32 22 -63 0 -73 11 -78 93 -43 l37 16 0 -65
c0 -42 4 -64 10 -60 6 3 10 -1 10 -10 0 -9 -4 -14 -9 -11 -5 3 -16 -5 -25 -19
-9 -14 -22 -25 -29 -25 -7 0 -21 -13 -30 -30 -15 -24 -25 -30 -53 -30 -19 0
-34 -2 -34 -5 0 -2 10 -19 22 -37 22 -31 25 -33 63 -25 22 5 47 12 55 16 18 9
49 100 42 120 -4 10 3 8 22 -4 22 -15 26 -24 22 -44 -3 -14 -9 -40 -12 -58 -4
-18 -14 -33 -24 -36 -22 -6 -41 -98 -21 -105 6 -2 11 -10 11 -18 0 -8 4 -14
10 -14 5 0 7 6 5 13 -3 6 -1 17 3 22 14 21 72 56 81 50 5 -3 7 -29 5 -58 -6
-68 3 -83 42 -62 38 20 61 19 68 -2 10 -33 4 -102 -10 -114 -8 -6 -14 -17 -14
-24 0 -8 -5 -15 -11 -17 -13 -4 -30 -77 -18 -83 13 -9 57 6 63 21 3 8 16 14
28 15 l23 0 -24 10 c-17 7 -21 13 -14 20 13 13 58 -13 74 -42 6 -11 15 -16 25
-12 14 5 13 2 -2 -15 -10 -12 -25 -22 -34 -23 -8 0 -35 -25 -60 -55 -25 -30
-51 -62 -59 -71 -8 -8 -15 -30 -15 -49 -1 -25 -5 -34 -18 -34 -26 0 -22 -19 7
-30 36 -14 136 46 159 94 15 33 18 34 49 25 56 -16 78 -11 115 27 43 44 87 64
143 64 25 0 50 7 60 16 9 8 41 19 71 23 29 4 67 14 83 23 62 34 143 57 219 63
88 8 165 28 177 46 4 7 48 15 100 20 155 14 232 26 279 44 34 12 80 16 195 17
137 0 152 2 172 21 19 17 27 18 45 9 13 -6 39 -13 58 -15 19 -3 67 -14 105
-25 39 -11 117 -23 175 -26 147 -9 288 -33 324 -55 17 -10 67 -23 111 -28 74
-10 106 -20 221 -74 23 -10 48 -19 57 -19 18 0 94 -37 102 -50 3 -5 39 -11 80
-15 58 -6 81 -13 102 -31 16 -14 46 -29 69 -35 31 -8 40 -15 40 -31 -1 -15 8
-24 31 -32 33 -12 113 -80 113 -97 0 -5 21 -9 48 -9 73 2 151 -5 159 -14 4 -4
1 -13 -8 -19 -8 -7 -25 -33 -38 -59 -12 -27 -27 -50 -31 -53 -5 -3 -7 -12 -3
-20 7 -21 50 -19 81 4 23 16 100 30 189 35 12 0 25 4 29 9 11 10 62 9 69 -3 9
-15 75 -13 75 3 0 8 4 7 10 -3 6 -10 10 -11 10 -2 0 14 38 16 60 2 21 -13 10
-19 -40 -24 -49 -4 -50 -7 -49 -114 0 -30 -5 -60 -12 -68 -14 -17 -49 -19 -49
-3 0 8 -5 8 -15 -1 -12 -10 -20 -9 -40 4 -14 9 -25 20 -25 25 0 9 61 41 78 41
15 0 24 36 17 68 -7 32 -44 52 -96 52 -40 0 -61 -15 -83 -58 -31 -60 -84 -75
-146 -42 -21 11 -26 10 -41 -9 -19 -23 -45 -28 -52 -8 -7 16 -76 -61 -77 -85
0 -11 12 -20 37 -27 20 -6 39 -8 43 -6 23 14 26 -107 4 -140 -15 -24 -15 -25
4 -25 11 0 25 7 32 15 7 8 20 15 30 15 10 0 23 -7 30 -15 11 -13 318 -15 2651
-15 l2639 0 16 40 c9 22 20 40 24 40 4 0 23 11 43 24 19 13 38 22 41 19 3 -3
8 6 11 20 9 34 40 60 100 82 28 10 63 29 78 42 16 12 33 23 39 23 5 0 24 10
40 22 17 12 54 27 82 33 54 13 65 9 79 -28 3 -9 13 -17 22 -17 13 0 15 66 15
583 0 600 0 602 -39 692 -22 51 -31 106 -30 175 3 97 -19 245 -45 310 -3 8
-10 67 -15 131 -5 71 -15 128 -25 147 -9 18 -21 74 -25 125 -5 50 -14 105 -21
122 -15 39 -40 171 -40 211 0 17 -7 49 -16 69 -11 27 -17 84 -21 189 -3 88
-10 169 -19 195 -8 26 -11 60 -8 82 4 25 2 44 -6 54 -15 18 -46 143 -61 245
-5 36 -14 76 -20 90 -7 14 -15 57 -19 95 -14 118 -38 234 -55 257 -8 13 -15
43 -15 68 0 32 -7 56 -24 81 -14 20 -28 53 -31 75 -9 51 -59 155 -85 179 -12
11 -20 31 -20 51 0 21 -7 38 -20 47 -14 10 -22 32 -28 73 -7 49 -15 66 -48 99
-24 25 -44 59 -52 88 -8 25 -20 51 -27 57 -7 6 -15 28 -19 49 -3 20 -15 46
-26 56 -11 10 -20 27 -20 37 0 25 -37 97 -66 128 -12 14 -27 43 -32 66 -8 37
-7 43 20 70 17 16 36 43 43 60 11 27 19 32 65 38 l52 7 -7 42 c-8 51 -16 60
-46 55 -15 -2 -34 -21 -56 -58 -29 -49 -38 -56 -80 -67 -63 -16 -107 1 -116
46 -6 29 -58 91 -76 91 -5 0 -11 12 -14 28 -10 48 -47 122 -62 122 -8 0 -26
15 -40 34 -18 23 -42 39 -78 51 -29 9 -60 24 -69 32 -25 22 -22 58 6 86 13 13
29 47 36 78 7 30 22 65 35 79 33 37 73 164 81 255 4 56 13 92 30 120 27 47 74
221 74 274 0 20 7 49 15 65 20 38 20 154 -1 181 -8 11 -19 38 -25 60 -24 89
-99 121 -240 100 -56 -9 -104 12 -113 50 -4 14 -11 25 -16 25 -6 0 -22 24 -35
53 -24 50 -47 90 -89 153 -10 16 -48 54 -85 84 -36 29 -82 73 -101 96 -37 44
-72 69 -130 94 -19 8 -65 32 -101 52 -36 21 -89 42 -117 48 -29 5 -64 18 -80
29 -15 11 -49 25 -77 32 -27 6 -66 18 -85 26 -27 12 -109 16 -396 20 -324 5
-364 4 -385 -11 -28 -19 -109 -21 -174 -4 -32 9 -51 9 -63 2 -10 -6 -75 -10
-155 -9 -148 2 -172 9 -149 45 18 29 15 38 -13 32 -14 -2 -25 0 -25 4 0 9
-102 10 -146 2 -12 -2 -29 -12 -38 -21 -10 -9 -23 -17 -29 -17 -7 0 17 -14 53
-30 69 -31 78 -49 41 -80 -10 -9 -16 -20 -14 -26 2 -7 -20 -14 -58 -18 -34 -4
-84 -18 -110 -32 -33 -16 -65 -24 -101 -24 -50 0 -175 -24 -208 -40 -9 -4 -35
-11 -59 -15 -24 -4 -58 -13 -75 -20 -31 -13 -56 -10 -56 5 0 5 9 12 20 15 36
11 21 23 -23 18 -26 -3 -62 1 -90 11 -26 9 -70 16 -97 16 -53 0 -62 10 -47 51
7 18 6 34 -4 57 -8 18 -17 32 -20 32 -13 0 -38 -37 -47 -73 -9 -34 -8 -42 9
-60 38 -41 14 -96 -36 -83 -36 9 -39 9 -43 -3 -2 -6 8 -15 22 -21 14 -5 26
-14 26 -20 0 -5 3 -9 8 -8 4 2 8 -1 10 -6 1 -6 -10 -12 -25 -14 -14 -2 -31
-10 -37 -17 -6 -8 -33 -20 -61 -27 -27 -8 -61 -21 -75 -30 -14 -9 -52 -19 -85
-23 -41 -5 -74 -16 -104 -36 -25 -16 -51 -29 -58 -29 -18 0 -111 -47 -149 -75
-19 -15 -52 -26 -90 -30 -32 -4 -81 -16 -107 -26 -26 -11 -56 -19 -65 -19 -10
0 -31 -13 -47 -30 l-28 -30 -111 3 c-105 2 -114 0 -160 -26 -27 -15 -55 -27
-63 -27 -22 0 -98 -37 -113 -55 -11 -13 -15 -13 -21 -3 -7 10 -9 9 -9 -3 0
-18 -61 -79 -79 -79 -8 0 -24 -12 -37 -27 -22 -26 -59 -34 -104 -22 -10 3 -20
-11 -31 -45 -13 -38 -29 -58 -80 -100 -35 -28 -78 -65 -94 -81 -17 -17 -42
-39 -56 -50 -14 -11 -29 -28 -32 -38 -4 -10 -11 -15 -17 -12 -6 4 -20 -14 -31
-40 -19 -42 -62 -76 -77 -60 -3 3 0 5 6 5 7 0 12 11 12 25 0 26 76 133 95 134
6 1 19 14 28 31 10 16 27 35 38 40 10 6 19 16 19 23 0 7 31 43 69 80 67 66 88
106 69 125 -6 6 -21 5 -39 -1 -21 -8 -34 -8 -46 -1 -27 17 -25 28 13 52 41 27
39 31 -27 67 -35 19 -43 28 -41 47 4 36 10 48 25 48 8 0 31 15 51 33 35 33 38
33 115 32 43 -2 83 -5 89 -9 6 -3 13 -2 17 4 4 6 -6 10 -25 10 -28 0 -31 2
-24 23 9 31 12 32 32 14 24 -21 100 -22 129 -2 12 8 23 25 25 38 2 16 9 21 26
20 27 -3 29 18 3 37 -16 11 -19 23 -16 68 2 31 10 61 18 70 21 20 91 19 131
-3 l34 -18 40 31 c62 50 65 125 5 154 -40 19 -42 53 -5 66 16 5 45 24 66 42
33 29 41 32 81 27 39 -6 47 -3 74 23 16 17 32 30 36 30 4 0 25 13 48 30 47 33
86 36 291 24 106 -6 109 -5 103 15 -4 18 18 51 27 40 8 -10 13 -89 5 -89 -5 0
-9 -4 -9 -10 0 -17 97 -12 114 6 9 8 13 20 10 25 -3 6 2 19 11 29 11 12 16 32
14 59 -4 48 2 55 36 47 30 -8 33 -26 5 -33 -11 -3 -20 -11 -20 -18 0 -8 22
-11 78 -10 48 1 85 -4 98 -12 17 -11 26 -10 57 6 31 16 43 17 67 8 22 -8 33
-8 41 0 18 18 -22 48 -97 73 -38 12 -77 31 -87 41 -15 16 -27 19 -62 14 -27
-5 -45 -3 -49 4 -10 16 -29 14 -23 -3 3 -7 0 -19 -6 -25 -12 -12 -57 -15 -57
-3 0 4 -10 8 -22 9 -23 2 -74 10 -115 19 -13 2 -23 11 -23 18 0 8 -7 27 -15
42 -8 16 -15 41 -15 56 0 15 -4 29 -9 32 -16 10 1 47 26 57 14 5 40 5 62 0 56
-12 75 6 78 72 0 29 2 54 2 56 1 2 8 -2 16 -9 8 -7 15 -8 15 -2 0 5 25 22 56
36 65 31 120 32 118 3 -2 -17 52 -64 62 -54 3 3 27 -6 52 -19 l46 -25 15 26
c10 16 21 23 31 19 32 -14 60 -16 60 -5 0 6 9 11 21 11 11 0 18 4 15 9 -3 5 2
26 11 47 10 24 17 72 18 124 5 181 32 211 145 159 25 -11 88 -26 140 -33 52
-7 117 -22 144 -34 26 -12 69 -23 95 -23 33 -1 51 -7 62 -22 15 -18 37 -23
107 -26 7 -1 11 -5 8 -9 -9 -15 33 -51 66 -57 48 -8 72 -1 83 23 14 32 32 34
40 4 23 -93 76 -143 131 -122 22 9 26 6 41 -25 18 -38 64 -65 112 -65 33 0 69
18 112 57 24 22 27 23 40 7 8 -9 19 -27 24 -40 7 -17 14 -21 25 -14 12 7 12
13 1 32 -7 13 -18 49 -25 79 -10 46 -10 59 3 86 9 17 24 34 34 36 9 3 23 20
31 37 8 20 26 38 45 46 25 11 31 19 31 44 0 23 -6 33 -25 40 -56 21 -125 -17
-125 -70 0 -27 -7 -33 -62 -60 -34 -17 -63 -30 -65 -30 -2 0 -3 8 -3 18 0 10
-5 23 -11 29 -7 7 -8 22 0 48 13 47 10 51 -40 67 -53 15 -60 4 -52 -83 4 -45
2 -68 -6 -73 -16 -10 -14 -26 3 -26 8 0 17 -6 20 -12 4 -9 8 -9 11 -2 9 18
104 -6 111 -29 9 -28 -9 -41 -36 -27 -13 7 -33 9 -48 4 -52 -15 -65 -11 -74
22 -4 18 -18 35 -31 41 -18 8 -26 22 -29 50 -3 21 -19 58 -36 83 -33 49 -62
136 -62 184 0 24 -8 36 -36 54 -36 24 -54 56 -54 98 0 14 -6 24 -14 24 -8 0
-21 9 -29 20 -8 12 -18 20 -23 19 -23 -4 -33 3 -43 32 -6 17 -8 42 -5 55 5 19
2 24 -12 24 -13 0 -33 26 -64 80 -32 58 -54 84 -82 100 -46 26 -45 24 -69 111
-21 75 -19 89 11 89 21 0 37 40 25 60 -8 14 -44 3 -70 -20 -19 -18 -22 -18
-70 -1 -38 13 -54 24 -65 48 -8 17 -23 36 -33 42 -9 6 -73 14 -142 18 -68 3
-129 9 -136 13 -18 12 -1 30 27 30 34 0 64 17 64 36 0 9 9 27 20 41 11 14 20
32 20 40 0 8 16 21 35 29 20 8 38 21 42 29 3 8 11 15 19 15 8 0 14 5 14 10 0
6 -50 10 -129 10 l-129 0 -12 -50 c-13 -54 -24 -63 -84 -75 -22 -3 -49 -13
-60 -21 -11 -8 -37 -14 -56 -14 -20 0 -41 -5 -48 -12 -20 -20 -14 -64 10 -80
43 -29 11 -36 -79 -17 -49 10 -98 19 -109 19 -64 0 -44 74 23 86 57 10 87 29
124 76 19 24 37 44 41 46 4 2 18 12 30 22 23 19 22 19 -119 20 l-142 0 -3 -32
c-3 -30 -38 -66 -81 -81 -8 -3 -5 -18 12 -51 13 -25 22 -49 19 -51 -7 -8 -38
6 -38 16 0 5 -10 9 -21 9 -38 0 -104 24 -117 42 -28 38 -96 54 -244 58 -16 0
-7 41 12 57 11 10 20 21 20 25 0 5 -253 8 -562 8 -334 0 -558 -4 -552 -9z
m1560 -1130 c16 -5 68 -15 116 -22 81 -11 88 -14 99 -40 15 -38 7 -55 -37 -74
-43 -18 -185 -20 -254 -4 -97 22 -150 10 -150 -35 0 -24 45 -46 92 -46 14 0
33 -9 43 -20 17 -19 17 -21 -23 -57 -32 -30 -40 -43 -36 -60 4 -13 10 -23 14
-23 4 0 10 -7 14 -15 4 -10 -6 -20 -31 -30 -20 -8 -43 -23 -52 -33 -9 -9 -32
-28 -53 -42 -28 -19 -37 -33 -42 -63 l-7 -39 -20 26 c-24 31 -44 33 -59 7 -14
-26 -13 -44 4 -66 13 -18 14 -18 41 -1 27 18 28 18 49 -7 11 -13 29 -27 39
-30 24 -9 22 -59 -3 -82 -10 -9 -19 -20 -18 -24 1 -3 -6 -23 -15 -43 -17 -41
-36 -47 -81 -27 -20 10 -38 8 -94 -10 -49 -16 -80 -20 -105 -16 -20 4 -35 11
-32 15 3 5 -4 6 -15 3 -11 -3 -20 -11 -20 -18 0 -7 -7 -16 -16 -19 -26 -10
-102 -7 -109 5 -5 6 -12 4 -21 -8 -9 -13 -13 -14 -14 -4 0 11 -3 11 -15 1 -12
-10 -15 -9 -15 4 0 16 -1 16 -16 2 -8 -9 -20 -16 -25 -16 -13 0 -33 50 -30 75
1 11 -6 29 -17 40 -10 11 -24 43 -32 70 -17 66 -26 76 -59 69 -39 -10 -42 -13
-30 -36 8 -16 8 -22 -2 -29 -10 -6 -10 -13 -2 -32 14 -31 -6 -44 -70 -45 -62
-2 -67 -6 -63 -50 6 -60 31 -99 69 -106 19 -3 42 -13 53 -21 19 -15 18 -15 -5
-36 -18 -15 -36 -20 -67 -18 -26 2 -51 -3 -67 -13 -14 -10 -49 -18 -82 -19
-50 -2 -58 -5 -66 -26 -15 -40 -11 -51 26 -63 23 -8 37 -19 41 -35 8 -34 -2
-45 -44 -45 -30 0 -39 5 -49 25 -6 14 -7 25 -2 25 18 0 9 50 -11 62 -11 7 -20
16 -20 20 0 5 9 17 20 28 11 11 20 32 20 46 0 23 4 26 25 22 18 -4 26 0 30 13
4 10 10 18 15 16 5 -1 18 14 28 33 18 35 17 35 -6 68 -14 17 -29 32 -34 32
-13 0 -33 -21 -41 -42 -9 -24 -28 -23 -34 3 -3 11 -11 18 -19 15 -8 -3 -11 0
-8 8 4 10 -6 15 -35 18 -31 3 -37 1 -29 -9 8 -10 6 -13 -6 -13 -9 0 -16 5 -16
10 0 6 -5 10 -11 10 -8 0 -9 -13 -5 -39 5 -34 3 -39 -17 -45 l-22 -7 23 -9
c25 -10 30 -40 7 -40 -8 0 -21 -15 -29 -32 -8 -18 -15 -27 -15 -19 -1 12 -3
12 -13 -1 -21 -26 -69 -36 -98 -21 -14 7 -33 13 -42 13 -21 0 -35 55 -18 75 6
8 18 11 26 8 8 -3 14 0 14 6 0 15 37 14 43 -1 3 -7 6 -3 6 9 1 12 -3 25 -9 28
-14 9 -12 35 3 35 13 0 47 35 47 48 0 14 -51 54 -58 46 -4 -4 -1 -9 6 -11 6
-3 12 -11 12 -19 0 -8 -6 -11 -15 -8 -16 6 -19 33 -9 72 8 28 24 29 24 1 0
-29 16 -15 23 20 6 28 9 30 52 29 25 0 45 -5 46 -12 0 -6 5 2 9 18 11 37 4 49
-26 43 -13 -2 -24 0 -24 6 0 5 -12 2 -26 -8 -19 -12 -29 -14 -34 -6 -9 16 -38
3 -45 -20 -8 -24 -27 -24 -42 0 -9 15 -7 23 13 44 13 14 24 31 24 37 0 5 10
10 22 10 12 0 30 7 40 17 17 15 19 15 37 -1 12 -11 21 -13 25 -7 4 6 12 8 19
5 7 -2 21 12 31 31 18 33 18 37 4 52 -20 19 -62 20 -81 1 -8 -8 -37 -23 -63
-32 -27 -10 -66 -31 -86 -47 -20 -16 -42 -29 -47 -29 -6 0 -11 -4 -11 -10 0
-21 -34 -8 -81 31 -27 22 -49 45 -49 49 0 18 33 40 58 40 15 0 40 7 56 15 35
19 40 19 33 0 -9 -23 11 -28 23 -5 6 11 15 20 21 20 6 0 25 16 43 35 24 25 45
36 77 41 24 4 53 11 64 17 10 5 55 11 100 12 85 3 126 10 162 27 13 6 26 8 30
3 5 -4 3 -10 -4 -12 -10 -3 -10 -9 0 -23 9 -16 8 -22 -8 -34 -18 -14 -47 -21
-69 -17 -5 1 -6 -10 -4 -24 4 -20 1 -25 -14 -25 -30 0 -58 -19 -58 -38 0 -20
53 -82 69 -82 6 0 11 -7 11 -16 0 -9 8 -22 17 -29 14 -11 23 -10 45 1 36 19
87 18 94 -1 8 -20 41 -19 52 1 6 10 31 20 62 25 35 5 62 17 80 34 18 18 37 25
64 25 42 0 62 15 72 54 4 18 2 26 -7 26 -10 0 -11 2 -2 8 18 11 54 112 48 132
-8 24 -32 32 -56 19 -15 -7 -24 -7 -35 1 -9 8 -32 10 -67 6 -41 -5 -57 -4 -66
7 -9 12 -7 17 16 26 15 6 39 18 53 26 14 8 33 15 43 15 9 0 17 4 17 9 0 15 66
22 130 15 36 -4 60 -11 60 -19 0 -23 47 -56 76 -53 30 3 67 38 78 75 12 37
102 57 126 28 7 -8 9 -15 6 -15 -4 0 -2 -9 4 -19 7 -14 6 -21 -3 -24 -24 -9
18 -62 52 -65 17 -2 31 -7 31 -13 0 -5 11 -9 25 -9 17 0 29 -9 40 -30 17 -33
47 -39 71 -16 20 20 18 25 -21 59 -19 16 -35 36 -35 43 0 7 -18 32 -40 56 -22
24 -40 46 -40 49 0 3 18 11 39 18 37 11 40 15 46 55 l7 43 91 20 c115 25 108
25 143 14z m344 -229 c26 -27 70 -101 70 -120 0 -5 -11 -22 -25 -38 -14 -16
-25 -34 -25 -40 0 -13 -28 -27 -40 -19 -13 8 -32 92 -25 113 3 12 -1 34 -9 51
-26 49 -19 77 17 80 5 1 21 -12 37 -27z m-152 -78 c26 -18 28 -31 5 -56 -34
-38 -63 -11 -63 58 0 19 30 18 58 -2z m-2120 -264 c58 -13 70 -24 75 -69 2
-17 12 -38 23 -46 17 -13 17 -14 2 -15 -10 0 -18 -4 -18 -10 0 -5 -7 -10 -15
-10 -8 0 -15 -4 -15 -9 0 -5 -19 -12 -42 -15 -121 -18 -128 -18 -134 -2 -3 9
-14 16 -25 16 -10 0 -43 8 -74 17 -48 15 -55 20 -54 43 0 23 1 23 9 5 8 -18 9
-18 10 5 2 14 2 28 1 33 -1 7 24 11 44 7 52 -11 105 1 105 23 0 4 7 19 16 33
12 17 20 21 28 14 7 -5 35 -14 64 -20z m-1392 -97 c65 -29 74 -37 74 -71 0
-35 -86 -114 -119 -110 -22 3 -26 9 -29 38 -2 25 -9 39 -25 45 -24 11 -27 48
-7 99 12 33 32 33 106 -1z m1581 -9 c-3 -3 -12 -4 -19 -1 -8 3 -5 6 6 6 11 1
17 -2 13 -5z m0 -20 c-3 -3 -12 -4 -19 -1 -8 3 -5 6 6 6 11 1 17 -2 13 -5z
m-57 -59 c0 -8 6 -15 13 -15 9 0 9 -2 -1 -8 -9 -6 -10 -16 -3 -33 7 -21 8 -43
2 -100 -1 -3 -8 -6 -16 -6 -10 0 -15 10 -15 28 0 15 -4 29 -10 31 -5 2 -12 29
-16 61 -7 57 -7 57 20 57 16 0 26 -5 26 -15z m-480 -51 c0 -22 -32 -74 -46
-74 -7 0 -21 12 -31 26 -16 26 -16 27 6 45 24 20 71 22 71 3z m2220 -44 c0 -5
-4 -10 -10 -10 -5 0 -10 5 -10 10 0 6 5 10 10 10 6 0 10 -4 10 -10z m-1895
-66 c14 -14 24 -28 21 -31 -7 -7 -76 36 -76 48 0 18 29 9 55 -17z m-41 -154
c-6 -6 -15 -6 -24 0 -13 9 -13 11 0 20 18 11 39 -5 24 -20z m499 17 c3 -8 2
-20 -3 -27 -6 -10 -10 -8 -19 7 -10 19 -6 33 10 33 4 0 9 -6 12 -13z m-179
-106 c14 -16 16 -21 5 -21 -18 -1 -75 -83 -61 -88 12 -4 -24 -44 -55 -61 -19
-10 -24 -8 -39 13 -15 23 -15 30 0 89 9 35 16 71 16 81 0 10 14 23 32 31 29
12 35 11 58 -5 14 -10 34 -27 44 -39z m654 2 c2 -14 -4 -23 -16 -27 -25 -8
-52 2 -52 21 0 8 4 12 9 9 5 -3 14 1 21 9 17 20 34 14 38 -12z m-968 -41 c0
-11 -9 -27 -20 -37 -11 -10 -20 -23 -20 -30 0 -12 -53 -55 -67 -55 -5 0 -24
13 -42 28 -30 25 -33 30 -22 51 10 18 18 21 37 17 32 -8 103 11 111 30 7 20
23 17 23 -4z m525 -112 c11 -12 20 -30 22 -42 3 -18 1 -19 -14 -7 -43 34 -55
48 -48 58 9 16 20 14 40 -9z m-2753 -23 c4 -7 8 -36 8 -65 0 -33 8 -68 20 -92
11 -22 20 -53 20 -69 0 -29 -22 -61 -41 -61 -41 0 -89 69 -89 126 0 22 -5 46
-10 54 -5 8 -48 24 -96 35 -48 11 -89 25 -91 31 -2 6 6 23 18 39 l22 28 116
-8 c70 -4 119 -11 123 -18z m2983 -17 c4 -6 11 -8 16 -5 5 4 12 -1 15 -9 3 -9
15 -16 25 -16 10 0 19 -5 19 -11 0 -7 -7 -8 -17 -4 -41 17 -63 18 -63 1 0 -9
6 -16 13 -17 6 0 -1 -5 -16 -11 -43 -16 -55 3 -31 47 19 36 28 42 39 25z
m-381 -65 c5 -25 2 -42 -9 -57 -8 -13 -15 -33 -15 -45 0 -13 -6 -23 -14 -23
-18 0 -33 77 -17 93 6 6 11 24 11 39 0 21 5 28 19 28 14 0 21 -10 25 -35z
m2369 -72 c-7 -2 -19 -2 -25 0 -7 3 -2 5 12 5 14 0 19 -2 13 -5z m101 -24
c-13 -15 -19 -17 -26 -7 -4 8 -1 18 9 25 24 18 37 4 17 -18z m-341 -5 c26 -4
44 -11 41 -15 -3 -5 0 -9 6 -9 7 0 10 -6 7 -14 -3 -7 -1 -18 5 -24 19 -19 0
-41 -39 -48 -21 -4 -57 -17 -80 -30 -40 -22 -47 -22 -44 -1 0 4 -10 7 -23 7
-14 0 -31 7 -40 15 -8 8 -19 15 -25 15 -5 0 -14 7 -19 16 -5 8 -23 16 -40 16
-44 1 -40 13 14 39 25 13 48 27 50 31 6 10 123 11 187 2z m-2194 -56 c1 -5 -3
-8 -8 -8 -12 0 -22 30 -14 43 6 10 20 -13 22 -35z m-519 -44 c0 -8 -5 -12 -10
-9 -6 4 -8 11 -5 16 9 14 15 11 15 -7z m215 -94 c3 -5 1 -10 -4 -10 -6 0 -11
5 -11 10 0 6 2 10 4 10 3 0 8 -4 11 -10z m132 -30 c26 0 33 -5 42 -30 6 -19
17 -30 29 -30 11 0 25 -7 32 -15 17 -21 -8 -29 -62 -21 -24 4 -62 9 -85 12
-38 5 -42 8 -32 25 6 13 6 25 0 38 -13 23 -3 34 24 27 11 -3 34 -6 52 -6z
m273 -11 c0 -6 -17 -17 -38 -26 -26 -10 -42 -24 -49 -44 -14 -37 -48 -40 -57
-4 -7 27 -1 45 14 45 5 0 21 5 37 12 15 6 33 10 40 9 6 -1 14 3 18 9 8 13 35
13 35 -1z m-565 -9 c3 -5 1 -10 -4 -10 -6 0 -11 5 -11 10 0 6 2 10 4 10 3 0 8
-4 11 -10z m165 -66 c0 -9 -5 -14 -12 -12 -18 6 -21 28 -4 28 9 0 16 -7 16
-16z m334 -66 c19 -8 23 -14 16 -24 -6 -6 -19 -10 -28 -7 -28 7 -65 -40 -65
-84 0 -21 3 -49 7 -61 6 -19 4 -22 -19 -22 -38 0 -93 28 -100 51 -8 24 -17 24
-33 -1 -7 -11 -20 -20 -30 -20 -16 1 -16 1 1 14 9 7 17 18 17 24 0 6 11 12 25
14 14 2 25 7 25 11 -1 5 12 18 27 30 15 12 34 28 42 35 8 8 27 19 43 24 15 6
28 14 28 19 0 12 14 11 44 -3z m90 -13 c-4 -8 -11 -12 -16 -9 -6 4 -5 10 3 15
19 12 19 11 13 -6z m-462 -52 c29 -28 37 -59 16 -61 -7 0 -45 -4 -84 -8 l-71
-7 1 46 c1 43 3 46 31 50 68 9 80 6 107 -20z m5807 -19 c17 -9 38 -29 46 -44
17 -32 20 -145 5 -155 -5 -3 -28 13 -52 37 -40 40 -42 45 -45 110 -1 37 1 68
6 68 4 0 22 -7 40 -16z m-2681 -73 c25 -13 152 -138 152 -150 0 -22 -65 -28
-73 -6 -4 8 -22 21 -40 29 -19 8 -38 19 -41 25 -16 25 -61 10 -106 -34 -33
-34 -50 -43 -65 -39 -26 8 -25 6 -32 48 -8 49 13 109 46 130 20 13 40 16 84
12 32 -3 66 -10 75 -15z m-2943 -92 c9 -38 -4 -52 -41 -47 -24 2 -29 8 -32 35
-2 23 1 32 15 36 42 11 51 7 58 -24z m2895 -58 c0 -5 3 -16 6 -25 4 -10 -5
-22 -28 -36 -18 -11 -36 -20 -40 -20 -16 0 -7 51 12 70 21 21 50 27 50 11z
m-2400 -81 c0 -5 -4 -10 -10 -10 -5 0 -10 5 -10 10 0 6 5 10 10 10 6 0 10 -4
10 -10z m2765 -56 c21 -8 44 -22 52 -30 13 -12 11 -14 -11 -14 -14 0 -28 5
-31 10 -3 6 -31 10 -62 10 l-55 0 23 20 c29 24 37 24 84 4z m-2975 -104 c19
-11 11 -18 -28 -26 -28 -6 -32 -4 -32 15 0 23 32 29 60 11z m-220 -68 c-17
-31 -20 -56 -20 -169 0 -72 -4 -143 -10 -157 -6 -16 -6 -27 0 -31 6 -4 10 -22
10 -41 0 -31 -2 -33 -20 -22 -10 7 -17 14 -15 16 2 3 0 13 -6 23 -7 14 -6 19
3 19 10 0 13 22 13 83 1 170 14 301 32 314 27 21 34 4 13 -35z m3655 18 c23
-11 58 -20 78 -20 24 0 40 -5 43 -15 4 -9 19 -15 35 -15 27 0 69 -29 69 -48 0
-4 -7 -17 -15 -29 -13 -19 -20 -20 -48 -12 -17 5 -39 18 -47 29 -10 13 -29 20
-60 21 -68 3 -78 1 -90 -20 -8 -16 -4 -26 20 -52 34 -37 53 -111 48 -186 -3
-43 -6 -48 -28 -52 -14 -1 -46 -18 -71 -37 -45 -32 -50 -34 -130 -32 -62 1
-78 4 -62 11 12 5 24 15 27 22 7 19 -40 66 -58 59 -10 -4 -15 2 -18 17 -2 16
-18 31 -50 47 -27 14 -48 30 -48 37 0 7 -7 15 -15 19 -15 5 -22 46 -7 46 4 0
15 14 24 30 9 17 24 30 32 30 19 0 56 52 56 78 0 12 16 30 40 46 22 14 40 34
40 43 0 14 11 15 96 10 66 -5 110 -13 139 -27z m-3637 -522 c7 -7 12 -33 12
-58 0 -41 -4 -50 -39 -80 -21 -19 -51 -43 -67 -52 -16 -10 -37 -23 -46 -30
-36 -26 -108 36 -108 92 0 12 7 20 16 20 9 0 31 9 48 19 17 11 50 25 74 32 24
7 48 22 54 33 19 35 37 43 56 24z m5002 -146 c85 -17 171 -33 215 -39 22 -3
43 -10 46 -15 9 -14 233 -8 292 7 23 6 34 2 55 -18 15 -13 38 -28 51 -32 14
-4 36 -18 50 -31 16 -14 33 -22 43 -18 14 4 18 0 17 -18 -3 -37 48 -132 82
-156 10 -7 19 -19 19 -27 0 -8 9 -20 21 -28 17 -13 19 -21 13 -53 -5 -22 -7
-43 -6 -47 1 -4 5 -42 7 -84 5 -76 30 -140 52 -136 14 3 49 -37 57 -64 5 -16
2 -26 -14 -35 -11 -7 -25 -29 -30 -50 -8 -28 -18 -39 -42 -47 -17 -6 -35 -11
-39 -11 -11 0 -27 62 -34 132 -6 52 -10 60 -56 101 -39 35 -53 56 -63 94 -7
26 -25 70 -40 97 -14 27 -26 60 -26 74 0 28 -26 62 -47 62 -32 0 -61 31 -67
73 -5 35 -16 50 -58 87 -85 74 -121 86 -166 54 -19 -13 -22 -24 -22 -88 0 -81
-9 -97 -57 -101 -16 -1 -36 -5 -46 -10 -26 -11 -128 1 -163 20 -16 8 -36 15
-44 15 -8 0 -32 5 -53 11 -45 12 -60 41 -59 111 1 50 -9 64 -47 66 -33 1 -91
65 -84 91 3 12 16 22 32 24 41 7 150 1 211 -11z m-1990 -226 c0 -6 -11 -16
-25 -23 -23 -10 -25 -9 -25 11 0 13 3 25 6 28 9 9 44 -3 44 -16z m-494 -30
c10 -10 14 -38 14 -93 0 -76 -1 -79 -24 -81 -13 -1 -29 5 -36 13 -35 43 -61
-7 -34 -66 15 -34 15 -44 4 -79 -9 -26 -11 -62 -7 -107 8 -83 -20 -262 -49
-312 -10 -18 -23 -42 -29 -52 -5 -11 -15 -19 -22 -19 -7 0 -13 -4 -13 -10 0
-5 -7 -10 -15 -10 -24 0 -39 -38 -21 -55 57 -57 8 -177 -59 -147 -24 11 -34
45 -16 56 14 9 19 55 7 58 -6 2 -25 2 -43 -2 -25 -4 -40 -18 -73 -67 -40 -61
-42 -65 -44 -155 -3 -89 -2 -93 28 -134 44 -61 75 -57 61 8 -5 21 -16 34 -36
41 -16 6 -29 17 -29 25 0 7 3 11 8 9 4 -3 36 -1 72 4 89 13 116 6 124 -33 6
-30 7 -30 49 -24 58 9 76 31 87 105 5 35 12 66 15 69 4 4 19 7 35 8 22 1 31
-4 36 -20 8 -26 22 -36 51 -36 17 0 30 14 52 52 l30 52 -26 24 c-22 20 -25 29
-20 63 3 23 12 46 21 52 8 7 16 27 18 46 8 91 58 13 63 -97 1 -40 6 -76 9 -79
13 -13 5 -66 -13 -92 -11 -15 -22 -43 -26 -63 -6 -30 -12 -38 -35 -43 l-29 -6
21 -36 c20 -33 22 -34 34 -17 25 36 35 44 54 44 15 0 20 7 20 25 0 14 4 25 9
25 31 0 23 -65 -9 -73 -11 -3 -25 -18 -32 -34 -6 -15 -18 -35 -26 -44 -7 -9
-17 -29 -21 -45 -8 -29 -57 -61 -114 -74 -18 -4 -31 -12 -29 -19 2 -8 -4 -10
-18 -6 -14 5 -20 2 -20 -9 0 -9 5 -16 10 -16 18 0 10 -27 -19 -63 -16 -20 -31
-55 -35 -79 -8 -48 -36 -83 -83 -103 -36 -15 -48 -52 -34 -103 11 -38 1 -76
-23 -85 -22 -9 -20 -59 4 -109 11 -23 20 -47 20 -54 0 -20 -30 -25 -58 -9 -15
8 -39 19 -54 25 -14 6 -32 24 -38 40 -11 26 -45 49 -56 38 -10 -10 -6 -90 4
-100 15 -15 16 -45 2 -53 -22 -14 -50 6 -50 35 0 25 -8 32 -65 61 -55 27 -67
30 -81 19 -50 -42 -60 -150 -14 -150 10 0 20 7 24 15 3 8 10 15 16 15 5 0 10
-7 10 -15 0 -17 31 -20 47 -4 6 6 23 9 39 7 27 -3 29 -7 32 -48 3 -41 0 -47
-39 -82 -36 -33 -43 -44 -47 -88 -4 -45 -1 -53 27 -85 17 -20 31 -40 31 -44 0
-5 15 -12 33 -15 52 -10 60 -19 46 -49 -12 -26 -58 -45 -79 -32 -5 3 -15 -6
-20 -21 -8 -21 -8 -29 2 -36 17 -10 22 -10 52 2 17 6 35 6 51 0 22 -8 24 -13
20 -56 -6 -52 -40 -99 -51 -70 -4 10 -15 13 -38 9 -35 -5 -101 21 -91 36 5 10
-16 56 -27 59 -5 1 -16 2 -25 2 -24 0 -45 47 -33 71 7 12 7 20 0 24 -5 3 -10
1 -10 -4 0 -6 -6 -11 -14 -11 -22 0 -41 -29 -28 -42 20 -20 14 -26 -44 -33
-43 -5 -59 -3 -65 7 -7 11 -9 11 -9 -1 0 -11 -3 -11 -16 0 -12 10 -17 10 -23
0 -5 -8 -18 -10 -35 -5 -34 8 -45 47 -21 74 13 14 15 23 7 32 -11 14 -11 68 1
68 4 0 7 -4 7 -9 0 -17 50 -5 65 15 19 25 20 85 2 78 -7 -2 -26 2 -42 10 -37
19 -57 5 -54 -38 4 -60 1 -68 -21 -56 -11 6 -22 21 -26 35 -3 13 -13 27 -22
30 -15 6 -15 8 3 15 13 6 15 9 5 9 -8 1 -20 11 -25 24 -8 17 -18 22 -45 22
-32 0 -35 -2 -33 -27 1 -18 -3 -28 -12 -28 -7 0 -16 -14 -20 -31 -4 -19 -16
-34 -31 -39 -13 -5 -24 -16 -24 -24 0 -7 -10 -16 -21 -19 -15 -4 -20 -11 -17
-25 7 -24 -25 -46 -49 -33 -10 5 -30 14 -45 22 -24 11 -28 18 -28 56 0 47 -18
91 -51 124 -10 10 -19 32 -19 49 0 26 5 30 42 41 56 15 92 3 96 -32 3 -22 10
-28 40 -33 21 -3 54 0 77 8 31 11 41 20 43 40 2 15 9 38 17 52 19 38 9 57 -29
51 -49 -7 -76 8 -76 43 0 23 5 31 24 36 32 8 64 -10 68 -38 3 -21 5 -20 20 11
31 59 -5 92 -99 91 -32 -1 -106 0 -166 2 -96 3 -107 1 -107 -14 0 -10 -4 -18
-10 -18 -16 0 -12 -37 5 -43 8 -4 17 -2 19 2 9 13 77 21 97 11 10 -6 34 -12
54 -15 76 -9 89 -22 63 -58 -17 -21 -188 -28 -211 -8 -9 7 -24 11 -34 9 -13
-2 -18 4 -19 22 -1 14 -3 39 -5 55 -2 17 -1 35 2 40 4 6 9 21 12 35 4 16 26
38 61 60 64 41 89 86 59 108 -35 26 -110 -4 -125 -50 -3 -7 -27 -11 -64 -10
-32 0 -74 1 -91 1 -26 0 -33 5 -33 20 0 15 -6 19 -27 18 -23 -2 -29 -8 -31
-32 -4 -31 20 -58 43 -49 29 12 35 -172 6 -205 -10 -12 -22 -21 -26 -21 -4 0
-19 -9 -35 -20 -15 -11 -30 -17 -33 -14 -3 4 -9 -5 -13 -20 -3 -14 -12 -26
-20 -26 -24 0 -64 -23 -64 -37 0 -7 9 -13 21 -13 27 0 51 -24 43 -44 -10 -25
-77 -25 -106 1 -9 8 -25 13 -35 11 -14 -2 -19 -14 -21 -58 -3 -50 -6 -57 -35
-76 -37 -25 -108 -43 -152 -39 -16 2 -38 4 -47 4 -22 1 -25 41 -3 41 9 0 15 9
15 24 0 19 -7 26 -32 31 -50 11 -86 42 -97 82 -6 20 -8 40 -5 45 3 5 0 7 -7 6
-6 -2 -16 13 -21 32 -6 19 -14 41 -20 47 -8 9 -4 18 13 33 13 10 27 19 32 20
4 0 7 10 7 23 0 18 -2 19 -10 7 -7 -10 -8 0 -4 33 6 40 3 51 -14 70 -34 37
-37 86 -8 125 21 29 23 38 14 63 -6 16 -24 37 -40 45 -28 14 -29 17 -15 37 9
14 27 23 50 25 19 2 41 9 47 17 19 23 2 74 -31 94 -26 16 -35 16 -101 4 -149
-27 -138 -23 -138 -55 0 -29 0 -29 -52 -26 -50 3 -54 5 -75 43 -12 22 -28 40
-35 40 -7 1 -12 7 -10 14 1 7 -5 19 -14 25 -12 10 -14 17 -6 32 27 53 34 73
28 92 -12 37 47 192 73 192 15 0 36 51 24 58 -7 5 -3 17 13 35 20 24 27 27 40
17 13 -11 13 -15 -1 -30 -18 -20 -19 -44 -2 -58 19 -16 100 9 112 36 14 31 52
45 122 47 50 1 67 5 83 23 11 11 20 23 20 25 0 3 -118 26 -159 30 -18 2 -23
18 -12 36 6 9 33 16 68 19 32 3 66 10 76 17 9 7 29 10 42 7 24 -4 25 -7 21
-60 -3 -36 -10 -59 -20 -64 -12 -7 -16 -25 -16 -64 0 -30 -5 -63 -12 -73 -16
-26 -4 -48 32 -56 42 -9 70 16 70 64 1 20 7 54 15 76 8 22 15 47 15 56 0 8 11
26 25 39 14 13 25 34 25 46 0 13 5 35 12 49 9 21 18 25 55 25 24 0 52 -5 62
-12 30 -19 99 7 144 53 21 21 33 39 27 39 -7 0 -7 7 1 21 10 19 17 21 62 15
37 -4 59 -13 77 -31 40 -41 93 -85 102 -85 17 0 7 38 -17 64 -29 31 -30 36
-10 36 8 0 15 4 15 9 0 13 22 18 100 26 36 4 69 11 75 16 5 5 51 9 101 9 51 0
96 5 99 10 3 6 13 10 21 10 8 0 32 12 53 26 48 31 146 38 166 10 15 -19 25
-11 25 22 0 26 29 57 64 68 11 4 39 22 62 40 23 19 45 34 51 34 5 0 19 10 30
23 11 12 30 29 40 37 11 8 27 29 36 46 27 52 220 224 270 240 12 4 33 17 46
30 26 26 77 54 98 54 7 0 13 6 13 14 0 7 9 16 19 19 11 3 27 21 35 41 8 20 23
39 33 43 10 4 28 17 40 30 25 26 48 29 69 9z m2954 -27 c0 -5 -7 -9 -15 -9 -8
0 -15 7 -15 15 0 9 6 12 15 9 8 -4 15 -10 15 -15z m-5948 -64 c11 -32 17 -69
13 -82 -5 -21 -11 -24 -43 -21 -36 3 -37 4 -40 46 -2 25 1 42 7 42 6 0 11 15
11 33 0 70 27 61 52 -18z m-412 -185 c0 -5 -4 -10 -10 -10 -5 0 -10 5 -10 10
0 6 5 10 10 10 6 0 10 -4 10 -10z m4805 -79 c7 -12 63 -41 79 -41 32 -1 88
-81 66 -95 -6 -4 -18 -43 -24 -77 -3 -17 -48 -68 -61 -68 -22 0 -75 84 -75
120 0 18 -7 59 -15 91 -9 33 -13 64 -10 69 8 13 32 13 40 1z m-148 -17 c-3 -3
-12 -4 -19 -1 -8 3 -5 6 6 6 11 1 17 -2 13 -5z m-90 -40 c-3 -3 -12 -4 -19 -1
-8 3 -5 6 6 6 11 1 17 -2 13 -5z m-4638 -100 c-23 -12 -39 -10 -39 5 0 4 14 8
31 8 30 0 30 -1 8 -13z m1626 -4 c3 -5 2 -10 -4 -10 -5 0 -13 5 -16 10 -3 6
-2 10 4 10 5 0 13 -4 16 -10z m-1630 -30 c-3 -5 -12 -10 -18 -10 -7 0 -6 4 3
10 19 12 23 12 15 0z m1745 -30 c0 -10 -38 -1 -45 10 -2 4 7 5 20 2 14 -2 25
-8 25 -12z m105 -30 c10 -17 -52 -16 -69 1 -6 5 4 9 26 9 20 0 40 -4 43 -10z
m4995 -95 c7 -14 22 -25 32 -25 10 0 18 -7 18 -15 0 -8 9 -19 20 -25 24 -13
25 -26 5 -47 -12 -12 -19 -12 -30 -3 -7 6 -12 17 -9 24 7 17 -26 30 -40 16 -7
-7 -6 -10 2 -10 17 0 15 -59 -2 -66 -7 -3 -29 1 -49 9 -40 17 -68 76 -48 101
6 7 8 15 5 19 -3 3 3 3 15 0 12 -3 21 -1 21 5 0 12 28 42 39 42 4 0 14 -11 21
-25z m-702 -34 c21 -11 27 -10 48 10 19 18 30 21 61 14 21 -4 56 -10 78 -13
43 -8 68 -40 60 -77 -4 -16 4 -24 36 -40 26 -13 49 -34 62 -57 l21 -38 -22
-20 c-30 -29 -54 -27 -46 4 4 17 -1 31 -16 46 -21 21 -22 21 -43 3 -23 -19
-32 -30 -46 -52 -14 -24 -51 4 -51 39 0 34 -31 70 -59 70 -30 0 -51 11 -51 26
0 8 -7 14 -15 14 -8 0 -17 11 -21 25 -4 15 -13 25 -24 25 -21 0 -29 16 -22 44
4 16 7 17 16 4 6 -8 22 -20 34 -27z m-908 -86 c8 5 11 -3 8 -26 -5 -52 -57
-93 -114 -90 -50 1 -98 22 -107 45 -7 17 1 26 22 26 9 0 48 13 86 29 47 19 74
25 82 19 7 -5 17 -7 23 -3z m1805 -68 c4 -23 2 -43 -4 -51 -17 -21 -30 -73
-21 -82 22 -23 -41 -64 -85 -57 -66 10 -73 14 -83 41 -19 56 17 149 63 159 41
9 85 38 85 57 0 20 1 20 20 -4 10 -14 22 -42 25 -63z m-6435 -194 c0 -10 -4
-14 -8 -8 -4 6 -11 13 -16 18 -5 4 -2 7 7 7 10 0 17 -8 17 -17z m-25 -13 c3
-5 -3 -10 -14 -10 -12 0 -21 5 -21 10 0 6 6 10 14 10 8 0 18 -4 21 -10z m6383
-47 c-2 -13 5 -19 25 -21 34 -4 35 -20 1 -28 -19 -5 -32 0 -54 21 -33 31 -31
45 6 45 18 0 24 -5 22 -17z m-6347 -106 c-1 -12 -15 -9 -19 4 -3 6 1 10 8 8 6
-3 11 -8 11 -12z m18 -81 l22 -24 -21 -42 c-12 -23 -23 -63 -24 -89 -2 -25 -7
-57 -13 -71 -6 -14 -12 -34 -14 -45 -7 -34 -39 -24 -54 17 -7 21 -11 39 -10
40 2 2 6 37 10 78 4 41 8 82 9 91 2 15 53 68 67 69 3 0 16 -11 28 -24z m-199
-16 c0 -13 -7 -20 -20 -20 -19 0 -27 20 -13 33 13 14 33 6 33 -13z m-215 -17
c4 -10 9 -31 11 -47 2 -16 17 -40 35 -56 19 -16 27 -30 21 -34 -24 -14 2 -107
37 -133 26 -19 6 -26 -46 -17 -46 9 -48 10 -55 53 -4 26 -3 51 3 62 7 15 6 23
-6 36 -15 14 -17 14 -22 -6 -3 -11 -13 -21 -23 -21 -20 0 -30 36 -30 107 0 36
4 46 20 50 11 3 20 9 20 14 0 16 28 9 35 -8z m5187 -203 c14 0 2 -13 -15 -16
-7 -1 -21 -6 -31 -10 -14 -5 -17 -4 -12 4 4 7 14 12 22 12 8 0 12 5 9 10 -3 6
-3 16 2 23 5 9 8 7 11 -5 2 -10 8 -18 14 -18z m-4885 -185 c-4 -8 -15 -15 -26
-15 -24 0 -18 27 7 33 22 4 26 1 19 -18z m129 -11 c26 -20 37 -24 48 -15 10 8
17 6 30 -8 17 -18 18 -47 5 -101 -3 -10 3 -14 19 -13 13 2 25 -4 28 -12 4 -8
12 -15 20 -15 26 0 14 -21 -21 -36 -51 -21 -74 -18 -81 11 -3 14 -11 25 -16
25 -6 0 -6 6 1 14 8 10 9 16 1 21 -5 3 -10 17 -10 30 0 21 -42 67 -71 77 -11
4 -4 48 7 48 3 0 21 -12 40 -26z m204 -135 c0 -21 -1 -22 -24 -13 -16 6 -22
35 -9 47 10 11 33 -13 33 -34z m78 -7 c2 -12 -2 -22 -9 -22 -9 0 -9 -3 1 -15
16 -19 3 -40 -16 -24 -8 6 -14 18 -14 25 0 8 -8 14 -17 14 -17 1 -17 1 0 11 9
5 17 17 17 25 0 24 35 12 38 -14z m5572 -102 c13 0 17 5 14 14 -7 17 20 33 61
36 45 3 55 1 55 -11 0 -6 9 -23 20 -39 16 -22 18 -33 10 -60 -8 -27 -6 -38 11
-62 12 -16 24 -48 27 -70 3 -23 25 -80 49 -127 35 -66 44 -94 42 -126 -3 -50
6 -67 34 -63 18 2 21 -1 19 -22 -5 -32 -3 -31 -49 -37 -31 -4 -43 0 -65 20
-15 14 -30 21 -33 16 -11 -18 -47 -9 -129 32 -145 72 -136 64 -137 122 -2 88
1 210 7 247 3 20 7 67 8 105 2 39 9 71 15 73 6 2 12 11 13 20 1 10 3 -2 5 -25
3 -34 8 -43 23 -43z m607 -172 c4 -7 8 -29 9 -48 3 -55 15 -93 40 -122 30 -37
37 -62 29 -104 -4 -24 -11 -34 -24 -34 -10 0 -36 -7 -56 -16 -31 -13 -39 -13
-46 -2 -12 18 -11 38 1 38 6 0 10 7 10 15 0 8 -4 15 -10 15 -5 0 -10 12 -10
27 0 14 -7 50 -17 79 -21 68 -10 132 27 151 31 16 37 16 47 1z m-3939 -10 c7
-7 12 -22 12 -35 0 -13 5 -23 10 -23 6 0 10 -7 10 -15 0 -9 7 -18 15 -21 8 -4
15 -13 15 -20 0 -27 -29 -26 -72 4 -36 25 -43 35 -43 63 1 54 25 75 53 47z
m-1175 -124 c3 -4 -5 -22 -20 -40 -29 -39 -66 -45 -83 -14 -14 27 -5 40 28 40
15 0 34 5 42 10 18 11 24 12 33 4z m1234 -91 c-4 -3 2 -12 13 -20 21 -15 26
-48 10 -73 -8 -13 -12 -11 -26 8 -14 20 -21 23 -58 17 -22 -4 -47 -12 -54 -18
-11 -8 -17 -6 -25 8 -15 27 -16 53 -3 64 18 15 157 29 143 14z m2221 -132 c3
-21 3 -21 -17 -5 -11 10 -18 22 -15 26 10 15 29 3 32 -21z m-3914 -7 c19 -18
19 -20 6 -45 -15 -28 -28 -23 -38 14 -13 48 1 62 32 31z m1738 -41 c45 -17 49
-20 46 -47 -2 -21 -13 -36 -41 -53 l-38 -24 -36 38 c-20 21 -44 38 -52 38 -9
0 -17 10 -19 23 -6 41 59 53 140 25z m754 -33 c34 0 9 -28 -39 -43 -74 -23
-82 -22 -57 11 24 30 48 43 68 36 8 -2 20 -4 28 -4z m1458 -10 c3 -8 8 -34 11
-58 8 -51 27 -72 64 -72 30 0 48 -15 49 -40 1 -8 10 -40 21 -71 24 -66 19 -99
-15 -99 -17 0 -28 8 -35 28 -25 61 -32 70 -62 76 -16 3 -32 4 -34 2 -9 -9 -11
-46 -2 -51 5 -4 9 -17 9 -30 0 -13 4 -25 9 -27 4 -1 11 -13 15 -25 5 -16 2
-23 -14 -28 -12 -4 -24 -4 -27 -1 -3 3 -14 1 -24 -4 -24 -13 -35 5 -12 19 14
8 15 12 6 22 -10 10 -14 7 -22 -13 -7 -18 -17 -25 -34 -25 -22 0 -25 5 -30 50
-7 58 -7 57 -48 66 -61 12 -65 75 -5 76 14 1 30 5 35 10 16 17 30 108 20 127
-7 12 -5 27 6 48 16 32 22 35 43 22 15 -10 9 -76 -8 -97 -9 -11 -5 -17 19 -29
16 -9 31 -16 33 -16 8 0 -5 81 -13 86 -5 3 -9 21 -9 39 0 31 3 35 25 33 14 -1
27 -9 29 -18z m-3636 -25 c1 -11 -2 -27 -8 -35 -9 -13 -13 -11 -29 10 -15 18
-17 28 -9 38 16 18 43 11 46 -13z m1842 -22 c0 5 6 5 12 1 9 -6 5 -10 -12 -14
-32 -9 -44 -2 -29 16 10 12 14 12 20 2 5 -7 9 -9 9 -5z m-4098 -4 c20 -11 20
-11 -3 -24 -20 -10 -26 -9 -36 3 -26 32 -3 43 39 21z m6730 -9 c18 -7 52 -28
75 -47 23 -18 50 -33 60 -33 30 -1 59 -32 72 -80 7 -25 20 -65 29 -90 8 -25
15 -62 13 -82 -2 -40 -37 -128 -50 -128 -5 0 -11 -8 -14 -19 -3 -13 -17 -19
-49 -23 -25 -3 -60 -13 -78 -22 -28 -14 -38 -14 -62 -4 -32 15 -43 44 -34 90
5 27 1 36 -29 64 -23 21 -35 41 -35 58 0 25 -25 59 -49 67 -15 5 -15 41 -2
114 6 33 13 76 16 95 4 19 8 40 10 46 4 15 85 10 127 -6z m-4029 -20 c6 -24
-15 -27 -34 -4 -10 13 -10 17 1 24 18 11 26 6 33 -20z m-2882 6 c15 9 39 -15
32 -32 -4 -11 -14 -13 -41 -8 -34 7 -35 6 -28 -20 6 -24 4 -26 -23 -26 -16 0
-33 5 -36 10 -8 13 34 49 60 51 17 1 17 2 3 6 -10 2 -18 8 -18 13 0 11 34 18
38 8 2 -5 8 -5 13 -2z m4652 -21 c19 -14 20 -56 2 -62 -6 -2 -19 3 -29 10 -13
9 -16 20 -11 40 8 31 13 32 38 12z m2727 1 c0 -3 -4 -8 -10 -11 -5 -3 -10 -1
-10 4 0 6 5 11 10 11 6 0 10 -2 10 -4z m-7500 -16 c0 -13 -50 -13 -70 0 -11 7
-4 10 28 10 23 0 42 -4 42 -10z m4586 -65 c-4 -15 -13 -22 -28 -21 -19 1 -23
6 -22 36 0 27 6 38 25 47 22 12 24 11 27 -13 2 -15 1 -37 -2 -49z m-236 -1 c9
-30 10 -50 2 -70 -10 -29 -10 -29 -11 -4 l-1 25 -24 -29 c-22 -28 -25 -29 -54
-17 -32 14 -67 55 -58 70 3 5 25 12 48 15 35 5 47 13 62 39 10 17 20 28 21 22
1 -5 8 -29 15 -51z m-1066 21 c21 -33 21 -33 -20 -41 -39 -7 -57 6 -46 35 13
37 44 40 66 6z m632 0 c16 -41 -32 -94 -71 -79 -20 8 -19 58 1 78 20 20 63 21
70 1z m1244 -31 c6 -14 20 -38 31 -52 l20 -26 -20 -11 c-12 -6 -32 -34 -46
-62 l-26 -52 -67 -6 c-96 -9 -94 -8 -106 -28 -9 -14 -6 -26 12 -57 38 -66 25
-100 -37 -100 -43 1 -66 17 -81 54 -12 32 -6 46 19 46 24 0 55 35 48 54 -4 9
0 45 8 81 11 54 21 75 57 114 52 57 69 66 131 69 43 3 48 1 57 -24z m-365 -64
c3 -5 1 -10 -5 -10 -6 0 -8 -4 -5 -10 3 -5 0 -10 -8 -10 -19 0 -27 9 -20 26 6
16 29 19 38 4z m505 -8 c0 -10 -22 -32 -32 -32 -4 0 -8 9 -8 20 0 13 7 20 20
20 11 0 20 -4 20 -8z m2280 -33 c0 -5 -4 -9 -10 -9 -5 0 -10 7 -10 16 0 8 5
12 10 9 6 -3 10 -10 10 -16z m-3438 -19 c4 -29 -13 -47 -33 -34 -5 3 -9 -2 -9
-10 0 -9 -4 -16 -10 -16 -5 0 -10 -9 -10 -20 0 -11 4 -20 8 -20 15 0 5 -55
-11 -58 -19 -4 -63 38 -50 47 6 3 13 24 16 45 4 27 16 47 39 67 42 36 55 36
60 -1z m691 15 c7 -18 -6 -27 -26 -19 -18 7 -11 34 8 34 7 0 15 -7 18 -15z
m3476 -12 c21 -26 27 -41 35 -98 6 -43 16 -87 26 -110 74 -176 131 -415 99
-415 -6 0 -8 9 -4 20 4 14 2 20 -9 20 -9 0 -19 12 -22 28 -4 15 -15 35 -25 45
-11 10 -19 24 -19 31 0 8 -6 19 -14 25 -7 6 -16 36 -18 66 -3 37 -12 63 -25
78 -14 15 -23 43 -27 87 -4 36 -14 76 -23 89 -9 14 -18 55 -21 93 -4 57 -2 68
11 68 9 0 25 -12 36 -27z m-689 -39 c0 -2 -7 -4 -15 -4 -8 0 -15 4 -15 10 0 5
7 7 15 4 8 -4 15 -8 15 -10z m-2380 -50 c0 -17 -5 -24 -20 -24 -22 0 -25 12
-9 41 13 25 29 16 29 -17z m2428 5 c-2 -6 -8 -10 -13 -10 -5 0 -11 4 -13 10
-2 6 4 11 13 11 9 0 15 -5 13 -11z m-2903 -55 c19 -7 36 -18 39 -23 13 -21
-52 -21 -80 0 -6 5 -13 6 -16 3 -11 -10 -88 19 -88 34 0 12 10 13 56 7 30 -3
71 -13 89 -21z m-505 -44 c0 -5 6 -10 14 -10 8 0 24 -20 36 -45 l21 -44 -27
-46 c-14 -26 -38 -54 -53 -63 -14 -9 -35 -27 -46 -40 -21 -24 -37 -27 -117
-24 -54 2 -62 16 -20 35 15 6 35 22 45 34 10 13 26 22 35 21 39 -3 51 4 67 34
16 33 13 80 -7 105 -16 20 1 53 28 53 13 0 24 -4 24 -10z m919 -32 c0 -13 -4
-32 -9 -43 -7 -15 -9 -10 -9 23 -1 23 4 42 9 42 6 0 10 -10 9 -22z m316 -62
c50 -13 50 -13 53 -57 3 -52 -11 -80 -30 -61 -6 6 -26 12 -44 12 -60 0 -144
48 -144 83 0 3 20 8 45 11 25 4 45 11 45 17 0 12 14 11 75 -5z m-1738 -178
c-3 -8 -6 -5 -6 6 -1 11 2 17 5 13 3 -3 4 -12 1 -19z m-3486 -40 c3 -51 -3
-63 -25 -55 -21 8 -9 37 12 31 14 -5 14 -3 -2 10 -10 8 -15 19 -11 25 11 18
25 12 26 -11z m5098 -39 c11 -19 11 -21 -4 -15 -9 3 -19 6 -21 6 -2 0 -4 7 -4
15 0 21 13 19 29 -6z m-5149 -146 c0 -2 -5 -13 -10 -23 -8 -14 -6 -22 8 -32
10 -7 30 -38 44 -69 24 -50 26 -67 24 -149 -4 -128 3 -156 37 -153 22 1 27 -2
27 -22 0 -29 -43 -65 -70 -58 -14 4 -25 22 -36 62 -9 31 -28 75 -42 99 -21 37
-24 51 -18 96 5 44 2 58 -14 79 -21 27 -26 62 -10 72 6 3 10 14 10 23 0 9 5
34 10 54 8 26 15 35 25 31 8 -3 15 -7 15 -10z m-1352 -25 c7 -7 12 -20 12 -31
0 -17 -2 -17 -28 5 -19 15 -25 26 -18 30 15 10 20 10 34 -4z m1982 -268 c25
-25 25 -31 -2 -74 -15 -22 -34 -37 -53 -41 -56 -12 -63 -16 -68 -35 -12 -47
-67 -30 -67 21 0 57 14 75 61 78 48 2 69 15 69 41 0 35 30 40 60 10z m7029
-174 c-1 -17 2 -41 6 -54 7 -20 5 -21 -15 -14 -23 9 -35 56 -24 94 8 29 34 9
33 -26z m-1416 -48 c44 -28 54 -53 33 -77 -23 -25 -46 -98 -46 -145 0 -79 -50
-108 -150 -89 -60 12 -97 -5 -81 -36 12 -21 -11 -61 -34 -61 -8 0 -18 -7 -23
-16 -6 -11 -31 -20 -73 -26 -59 -8 -65 -7 -81 13 -22 26 -22 41 -4 77 7 15 17
52 20 84 4 33 13 58 21 62 8 3 20 24 26 48 7 24 19 53 27 66 12 18 12 25 1 38
-7 8 -8 14 -3 13 5 -2 29 6 54 18 25 11 61 24 80 28 19 4 44 14 55 22 29 21
132 10 178 -19z m-5724 4 c11 -21 -6 -95 -21 -86 -10 6 -11 88 -1 97 9 10 11
9 22 -11z m-1512 -49 c6 -16 -34 -35 -57 -28 -28 9 -25 22 8 33 31 12 44 10
49 -5z m4117 1 c24 -23 20 -44 -9 -44 -14 0 -29 8 -35 20 -20 37 13 55 44 24z
m-2654 -69 c10 -13 9 -15 -8 -15 -15 0 -20 5 -16 15 4 8 7 15 9 15 1 0 8 -7
15 -15z m4413 -51 c3 -3 82 -7 175 -7 188 -2 198 -6 209 -72 5 -34 5 -35 -28
-35 -19 -1 -51 -9 -72 -19 -37 -17 -40 -17 -74 0 -54 27 -114 -1 -97 -46 4
-10 21 -15 54 -15 31 0 52 -5 61 -16 23 -28 58 -36 82 -19 23 16 57 20 57 8
-1 -34 -16 -54 -48 -62 -19 -6 -39 -8 -43 -5 -4 2 -10 -12 -14 -33 -23 -159
-33 -181 -65 -140 -11 14 -29 29 -40 32 -26 8 -25 21 1 28 31 8 20 40 -16 48
-59 13 -132 10 -145 -6 -7 -8 -17 -12 -22 -9 -5 4 -8 -8 -6 -27 l3 -34 60 -1
c33 0 75 -2 93 -2 l33 -2 -30 -44 c-34 -49 -42 -54 -115 -62 -46 -6 -56 -3
-80 18 -23 19 -29 35 -35 87 -5 43 -13 66 -24 73 -10 5 -17 21 -17 38 0 29 2
30 43 30 67 0 80 20 78 125 0 56 -6 93 -15 108 -12 18 -14 40 -7 65 2 5 38 2
44 -4z m-1095 -124 c4 -57 -43 -159 -64 -138 -7 7 -15 43 -18 80 -4 56 -2 70
15 92 15 20 24 23 42 17 17 -6 23 -17 25 -51z m-4711 17 c0 -15 -106 -91 -114
-83 -8 7 25 57 51 78 25 21 63 23 63 5z m4185 -14 c8 -10 18 -33 21 -50 5 -27
2 -36 -18 -49 -13 -8 -34 -14 -46 -12 -19 2 -24 10 -26 46 -5 73 32 107 69 65z
m1128 -51 c0 -13 -12 -22 -22 -16 -10 6 -1 24 13 24 5 0 9 -4 9 -8z m-5383
-34 c-3 -8 -6 -5 -6 6 -1 11 2 17 5 13 3 -3 4 -12 1 -19z m4903 -54 c0 -8 -5
-12 -10 -9 -6 4 -8 11 -5 16 9 14 15 11 15 -7z m121 -9 c15 -14 18 -14 34 1
17 17 18 17 31 -1 20 -27 18 -32 -13 -38 -28 -5 -83 24 -83 44 0 13 11 11 31
-6z m333 -86 c-2 -4 -13 -5 -24 -2 -19 5 -19 6 -3 18 13 10 20 10 25 2 4 -6 5
-14 2 -18z m-1280 -434 c-4 -8 -10 -12 -15 -9 -11 6 -2 24 11 24 5 0 7 -7 4
-15z m-490 -171 c14 -15 26 -31 26 -35 0 -9 -4 -10 -34 -13 -8 0 -25 11 -38
25 -22 23 -23 28 -9 37 23 16 25 15 55 -14z m976 18 c0 -11 -39 -12 -45 -1 -4
5 5 9 19 9 14 0 26 -4 26 -8z m-653 -59 c-7 -6 -46 10 -41 18 3 5 14 3 24 -3
11 -7 18 -13 17 -15z m-137 -49 c11 -12 11 -18 -2 -31 -23 -22 -98 -9 -98 17
0 14 9 20 38 23 20 2 40 4 43 5 4 1 12 -5 19 -14z m302 -50 c-7 -12 -11 -13
-17 -4 -4 7 -2 16 6 21 18 11 23 4 11 -17z"/>
<path d="M4432 8435 c-20 -43 -16 -63 12 -58 29 6 38 25 30 59 -8 31 -28 31
-42 -1z"/>
<path d="M3960 8045 c0 -8 7 -15 15 -15 8 0 15 7 15 15 0 8 -7 15 -15 15 -8 0
-15 -7 -15 -15z"/>
<path d="M3386 8024 c-9 -23 -8 -24 14 -24 13 0 20 7 20 20 0 24 -25 27 -34 4z"/>
<path d="M4771 4701 c-13 -23 8 -45 33 -35 17 7 19 14 10 38 -8 22 -31 20 -43
-3z"/>
<path d="M4995 4490 c-3 -5 1 -10 10 -10 9 0 13 5 10 10 -3 6 -8 10 -10 10 -2
0 -7 -4 -10 -10z"/>
<path d="M4098 4444 c-16 -8 -28 -19 -28 -24 0 -4 -3 -15 -6 -24 -5 -13 0 -15
27 -10 47 9 79 31 79 54 0 24 -32 26 -72 4z"/>
<path d="M4930 4330 c0 -5 7 -10 15 -10 8 0 15 5 15 10 0 6 -7 10 -15 10 -8 0
-15 -4 -15 -10z"/>
<path d="M4951 4291 c-1 -8 -9 -19 -18 -26 -15 -11 -15 -17 -5 -39 6 -14 16
-26 22 -26 15 0 21 42 11 75 -5 17 -10 24 -10 16z"/>
<path d="M3832 4184 c-18 -20 -32 -40 -32 -44 0 -16 23 -60 32 -60 4 0 8 -6 8
-13 0 -18 38 -39 61 -32 14 5 19 16 19 44 0 21 6 44 14 50 12 10 11 18 -7 52
-27 50 -53 51 -95 3z"/>
<path d="M3994 4134 c3 -9 6 -18 6 -20 0 -2 9 -4 20 -4 23 0 26 10 8 28 -18
18 -41 15 -34 -4z"/>
<path d="M4071 4074 c0 -11 3 -14 6 -6 3 7 2 16 -1 19 -3 4 -6 -2 -5 -13z"/>
<path d="M4007 4073 c-4 -3 -7 -19 -7 -34 0 -27 -30 -56 -43 -43 -8 9 -32 -8
-61 -43 -31 -36 -28 -83 4 -83 30 0 33 -19 5 -32 -21 -9 -32 -8 -60 5 -19 9
-35 21 -35 27 0 5 -7 10 -15 10 -22 0 -18 -28 5 -35 24 -8 25 -14 5 -51 -29
-55 -13 -124 28 -124 16 0 18 -3 9 -9 -11 -7 -11 -9 2 -14 9 -4 16 -13 16 -20
0 -8 7 -20 15 -27 13 -10 13 -15 3 -21 -26 -17 3 -21 36 -5 19 9 44 16 56 16
19 0 21 4 15 33 -4 17 -13 35 -19 39 -6 5 -2 8 12 8 12 0 22 -4 22 -10 0 -19
17 -10 28 15 7 14 23 27 39 31 69 15 65 8 58 97 -9 119 -11 127 -40 127 -33 0
-62 51 -40 70 20 17 19 43 -3 63 -20 19 -26 20 -35 10z"/>
<path d="M3053 4038 c-6 -7 -13 -20 -16 -29 -8 -23 -63 -49 -101 -49 -42 0
-73 -23 -81 -61 -5 -22 -3 -36 9 -47 15 -15 16 -15 16 1 0 9 5 17 10 17 6 0
10 -7 10 -15 0 -13 11 -15 68 -10 161 13 172 16 172 41 0 17 20 18 54 3 32
-15 56 2 56 38 0 23 -53 83 -73 83 -5 0 -20 9 -34 20 -29 22 -76 26 -90 8z"/>
<path d="M4215 3960 c-6 -10 4 -40 14 -40 9 0 31 22 31 31 0 10 -39 18 -45 9z"/>
<path d="M3355 3919 c-19 -36 -14 -59 15 -59 17 0 20 6 20 39 0 51 -15 60 -35
20z"/>
<path d="M4436 3764 c-8 -22 -9 -21 15 -27 29 -8 49 2 49 24 0 24 -55 27 -64
3z"/>
<path d="M5136 3757 c-21 -15 -40 -141 -25 -168 22 -42 77 -31 104 21 13 25
13 38 4 76 -10 40 -41 84 -59 84 -3 0 -14 -6 -24 -13z"/>
<path d="M4900 3675 c0 -8 13 -29 30 -47 l29 -33 1 33 c0 22 -5 32 -15 32 -9
0 -18 7 -21 15 -8 19 -24 19 -24 0z"/>
<path d="M4986 3664 c-17 -12 -17 -14 -4 -14 9 0 20 5 23 11 11 17 2 18 -19 3z"/>
<path d="M3717 3547 c-5 -14 2 -67 10 -67 18 0 37 38 34 68 -1 16 -37 16 -44
-1z"/>
<path d="M3768 3425 c-11 -25 -44 -34 -63 -17 -17 14 -85 33 -95 27 -6 -4 6
-25 27 -50 27 -33 40 -42 49 -34 9 7 25 7 52 0 44 -12 102 -5 102 13 0 6 -9
17 -20 24 -11 7 -20 23 -20 37 0 32 -17 32 -32 0z"/>
<path d="M3520 3205 c0 -14 5 -25 10 -25 6 0 10 11 10 25 0 14 -4 25 -10 25
-5 0 -10 -11 -10 -25z"/>
<path d="M8636 3365 c4 -8 10 -12 15 -9 14 8 10 24 -6 24 -9 0 -12 -6 -9 -15z"/>
<path d="M4470 9972 c0 -13 57 -52 76 -52 9 0 33 8 53 19 20 10 47 23 61 29
20 8 2 11 -82 11 -60 1 -108 -3 -108 -7z"/>
<path d="M8130 9965 c0 -8 5 -15 10 -15 6 0 10 7 10 15 0 8 -4 15 -10 15 -5 0
-10 -7 -10 -15z"/>
<path d="M9462 9963 c9 -10 22 -38 28 -63 16 -58 66 -164 85 -180 8 -6 17 -31
21 -56 3 -24 15 -53 25 -65 10 -12 19 -27 19 -34 0 -6 11 -22 24 -34 18 -17
27 -39 32 -80 3 -31 14 -69 24 -86 10 -16 20 -49 23 -73 3 -24 13 -52 22 -62
9 -10 22 -41 30 -70 7 -28 20 -61 28 -73 8 -12 17 -39 21 -60 8 -44 59 -149
80 -166 8 -7 18 -25 21 -41 3 -16 13 -34 21 -41 12 -10 14 59 14 515 0 440 -2
526 -14 526 -7 0 -19 -6 -25 -14 -12 -14 -98 -46 -125 -46 -8 0 -20 -9 -26
-19 -12 -24 -48 -20 -68 6 -46 61 -85 184 -63 197 6 4 11 14 11 22 0 11 -21
14 -112 14 -105 0 -110 -1 -96 -17z"/>
<path d="M8440 9929 c0 -24 4 -38 10 -34 6 3 10 22 10 41 0 19 -4 34 -10 34
-5 0 -10 -18 -10 -41z"/>
<path d="M6406 9887 c-40 -52 -30 -128 19 -147 26 -10 39 -42 33 -81 -3 -21
-11 -25 -73 -34 -60 -9 -78 -8 -125 8 -40 14 -72 18 -117 14 -35 -2 -61 -1
-58 3 3 5 0 10 -7 12 -9 3 -8 15 4 47 15 37 15 43 2 48 -29 11 -46 -20 -39
-71 9 -57 24 -73 73 -81 20 -4 56 -14 79 -24 27 -11 75 -18 133 -20 83 -2 95
0 137 25 44 25 47 26 73 11 20 -12 30 -13 38 -5 18 18 15 33 -13 64 -58 68
-65 78 -65 87 0 6 -3 8 -6 5 -3 -3 -17 5 -31 18 -39 36 -34 104 7 104 25 0 35
17 20 35 -21 26 -57 18 -84 -18z"/>
<path d="M7024 9908 c-12 -18 24 -41 70 -44 49 -4 62 10 24 25 -73 29 -86 32
-94 19z"/>
<path d="M7520 9906 c0 -8 8 -13 18 -11 9 2 23 4 30 4 26 2 10 21 -18 21 -19
0 -30 -5 -30 -14z"/>
<path d="M5488 9857 c-8 -16 -7 -23 8 -34 10 -7 29 -13 42 -13 35 0 60 -17 87
-60 29 -45 37 -48 71 -21 19 15 21 20 10 24 -8 3 -18 23 -22 44 -8 45 -25 59
-79 69 -81 14 -105 12 -117 -9z"/>
<path d="M240 9841 c0 -5 -12 -13 -27 -18 -67 -24 -131 -42 -170 -48 l-43 -7
0 -164 c0 -90 3 -164 8 -164 17 0 48 30 67 67 11 21 30 53 42 72 13 19 23 44
23 56 0 14 16 36 43 59 23 21 47 41 52 46 41 36 57 62 51 85 -4 16 -13 25 -26
25 -11 0 -20 -4 -20 -9z"/>
<path d="M6547 9831 c-10 -38 66 -64 84 -28 14 25 2 36 -43 43 -30 5 -36 3
-41 -15z"/>
<path d="M8420 9820 c0 -13 7 -20 20 -20 18 0 19 3 10 20 -6 11 -15 20 -20 20
-6 0 -10 -9 -10 -20z"/>
<path d="M8135 9790 c-3 -5 -1 -10 4 -10 6 0 11 5 11 10 0 6 -2 10 -4 10 -3 0
-8 -4 -11 -10z"/>
<path d="M2393 9718 c-88 -16 -69 -31 55 -43 83 -8 92 -12 92 -44 0 -17 -12
-38 -37 -61 l-38 -35 43 -3 c31 -2 53 3 80 20 26 16 58 24 112 28 72 5 75 6
78 32 5 39 20 47 77 38 31 -5 56 -4 66 3 15 10 14 13 -11 38 -25 26 -33 28
-116 28 -49 0 -124 -2 -167 -5 -52 -4 -82 -3 -90 5 -13 13 -70 13 -144 -1z"/>
<path d="M3126 9713 c-2 -2 -30 -6 -63 -9 -67 -5 -83 -10 -83 -23 0 -7 51 -8
199 -2 19 1 21 4 12 15 -12 14 -57 27 -65 19z"/>
<path d="M530 9695 c-7 -8 -28 -17 -47 -21 -23 -4 -38 -15 -45 -30 -8 -17 -19
-24 -39 -24 -22 0 -29 -6 -34 -29 -4 -19 -11 -28 -19 -25 -8 3 -22 -5 -32 -18
-11 -13 -32 -29 -49 -36 -27 -13 -28 -14 -11 -24 41 -23 164 39 181 91 4 12
28 36 55 52 31 19 49 38 52 54 6 29 5 30 -12 10z"/>
<path d="M7573 9703 c-31 -12 -6 -43 35 -43 9 0 40 -11 67 -25 51 -25 109 -33
119 -16 17 27 -30 61 -87 61 -18 1 -43 7 -57 15 -25 14 -55 18 -77 8z"/>
<path d="M1627 9645 c-4 -8 -2 -17 3 -20 6 -4 10 3 10 14 0 25 -6 27 -13 6z"/>
<path d="M8266 9627 c-17 -13 -18 -15 -2 -39 11 -16 14 -35 10 -55 -3 -17 -1
-33 4 -37 15 -9 40 3 47 22 2 10 20 35 40 57 19 22 33 45 32 50 -5 16 -109 18
-131 2z"/>
<path d="M5880 9610 c0 -11 0 -23 1 -26 0 -4 -5 -10 -12 -15 -24 -14 0 -23 38
-13 67 17 73 74 8 74 -28 0 -35 -4 -35 -20z"/>
<path d="M1455 9544 c-18 -27 -24 -91 -11 -113 4 -6 32 -18 62 -27 31 -9 57
-21 59 -27 2 -7 6 -24 9 -39 6 -26 10 -28 60 -28 l53 0 12 40 c13 44 20 50 71
65 43 13 52 40 15 47 -14 3 -49 -1 -77 -9 -73 -22 -165 -14 -189 16 -11 13
-19 33 -19 45 0 12 -6 30 -13 40 -12 17 -14 16 -32 -10z"/>
<path d="M6044 9459 c-12 -24 -13 -34 -3 -45 6 -8 16 -14 22 -14 5 0 27 -16
48 -35 22 -19 43 -35 48 -35 5 0 14 13 21 30 9 23 22 32 54 40 22 6 44 12 47
13 4 1 3 12 -2 24 -8 23 -65 39 -167 48 -50 4 -53 2 -68 -26z"/>
<path d="M7020 9480 c0 -5 5 -10 10 -10 6 0 10 5 10 10 0 6 -4 10 -10 10 -5 0
-10 -4 -10 -10z"/>
<path d="M6680 9462 c-53 -4 -68 -15 -51 -36 28 -34 117 -31 138 3 11 17 9 20
-15 28 -15 4 -47 7 -72 5z"/>
<path d="M5947 9433 c-10 -9 -8 -51 2 -57 15 -9 33 22 26 44 -6 20 -16 25 -28
13z"/>
<path d="M1235 9409 c-6 -9 25 -49 38 -49 2 0 2 14 -1 30 -4 30 -25 40 -37 19z"/>
<path d="M0 9360 c0 -23 13 -26 29 -6 9 11 8 15 -5 20 -23 9 -24 8 -24 -14z"/>
<path d="M6442 9358 c7 -20 58 -23 58 -4 0 11 -10 16 -31 16 -20 0 -29 -4 -27
-12z"/>
<path d="M6763 9340 c-48 -19 -15 -60 48 -60 l32 0 -23 -25 c-17 -18 -34 -25
-61 -25 -21 0 -45 -7 -53 -16 -9 -8 -37 -18 -63 -21 -27 -3 -55 -9 -65 -14
-24 -13 -60 -94 -65 -147 -8 -80 -17 -91 -87 -94 -53 -3 -61 -6 -61 -23 0 -14
8 -21 25 -23 53 -7 86 -23 108 -56 29 -43 76 -64 103 -48 10 7 26 12 34 12 22
0 146 58 170 80 11 10 30 21 42 24 12 4 25 16 28 27 4 11 20 33 36 50 56 57
32 96 -50 78 -44 -9 -56 -8 -76 5 -26 17 -33 50 -14 61 5 4 25 9 42 12 18 3
46 13 63 24 20 12 50 19 83 19 28 0 51 3 51 6 0 3 -8 35 -17 70 -17 63 -28 75
-50 53 -7 -7 -18 -3 -36 15 -21 21 -35 26 -74 25 -26 0 -58 -4 -70 -9z"/>
<path d="M8164 9338 c-30 -14 -50 -58 -32 -69 22 -14 38 -10 63 16 29 28 32
50 9 59 -9 3 -16 6 -17 5 -1 0 -12 -5 -23 -11z"/>
<path d="M6191 9301 c-21 -13 -5 -29 42 -42 51 -15 73 -33 81 -64 6 -22 8 -23
34 -9 15 7 41 14 58 14 19 0 34 6 38 15 4 13 -2 15 -31 13 -30 -2 -40 3 -62
29 -39 47 -120 69 -160 44z"/>
<path d="M100 9120 c-36 -22 -73 -40 -82 -40 -15 0 -18 -10 -18 -65 0 -48 4
-65 14 -65 17 0 109 97 129 136 9 17 23 36 31 43 9 8 16 17 16 22 0 17 -26 8
-90 -31z"/>
<path d="M7748 9139 c-36 -20 -8 -62 33 -52 22 6 23 16 9 44 -12 22 -18 23
-42 8z"/>
<path d="M8590 9110 c0 -5 5 -10 11 -10 5 0 7 5 4 10 -3 6 -8 10 -11 10 -2 0
-4 -4 -4 -10z"/>
<path d="M7941 8983 c-19 -15 -21 -22 -12 -45 17 -45 111 -103 111 -68 0 15
-50 107 -64 120 -10 7 -19 6 -35 -7z"/>
<path d="M503 8943 c-7 -19 29 -53 57 -53 27 0 77 -45 86 -77 10 -38 6 -53
-18 -73 -26 -21 -19 -33 36 -60 44 -21 56 -40 56 -92 0 -16 5 -28 10 -28 6 0
8 10 5 23 -3 12 -2 42 3 65 9 38 8 46 -15 72 -38 46 -28 62 45 75 35 7 75 10
89 7 26 -5 26 -10 8 -69 -6 -20 -4 -23 18 -23 30 0 52 31 36 47 -8 8 -6 19 6
36 9 15 15 40 13 59 -2 27 -7 32 -23 29 -60 -11 -132 -10 -154 1 -14 7 -28 27
-33 44 l-8 31 -105 1 c-90 1 -107 -1 -112 -15z"/>
<path d="M7534 8948 c-2 -3 -1 -13 2 -22 5 -12 10 -14 19 -6 7 6 16 7 19 2 3
-5 32 -17 66 -27 45 -14 64 -15 72 -7 15 15 -4 37 -46 57 -30 14 -124 16 -132
3z"/>
<path d="M265 8853 c-22 -14 -51 -34 -65 -43 -14 -9 -40 -20 -58 -23 -19 -4
-45 -16 -59 -27 -14 -11 -39 -20 -54 -20 l-29 0 0 -100 c0 -111 1 -113 63 -80
21 11 56 20 81 20 26 0 48 6 53 13 4 7 22 21 38 32 17 10 60 49 98 86 75 75
84 103 42 144 -30 31 -59 31 -110 -2z"/>
<path d="M7491 8821 c-27 -38 -26 -49 3 -63 35 -15 56 -4 56 31 0 66 -25 80
-59 32z"/>
<path d="M7883 8812 c-15 -9 -63 -101 -63 -119 0 -7 10 -33 22 -58 16 -33 28
-45 44 -45 28 0 34 17 33 98 -1 78 -18 135 -36 124z"/>
<path d="M1107 8785 c-35 -33 -35 -49 1 -40 36 8 54 28 46 48 -8 23 -14 22
-47 -8z"/>
<path d="M7030 8710 c-15 -9 -15 -9 33 -24 19 -6 41 10 33 23 -9 13 -45 14
-66 1z"/>
<path d="M1345 8660 c-7 -12 2 -30 16 -30 12 0 12 27 0 35 -5 3 -12 1 -16 -5z"/>
<path d="M5286 8603 c-12 -13 -6 -53 9 -53 9 0 15 9 15 24 0 26 -12 40 -24 29z"/>
<path d="M8120 8601 c0 -23 14 -41 31 -41 24 0 24 11 -1 33 -23 19 -30 21 -30
8z"/>
<path d="M1204 8579 c-3 -6 -1 -16 5 -22 12 -12 61 6 61 23 0 13 -57 13 -66
-1z"/>
<path d="M742 8558 c-6 -6 -4 -23 4 -46 7 -20 13 -51 14 -69 0 -33 17 -55 24
-31 15 53 23 125 15 134 -14 17 -46 23 -57 12z"/>
<path d="M6762 8521 c2 -7 7 -12 11 -12 12 1 9 15 -3 20 -7 2 -11 -2 -8 -8z"/>
<path d="M6968 8493 c-25 -6 -22 -22 6 -34 34 -16 72 -5 72 21 0 16 -6 20 -31
19 -16 -1 -38 -3 -47 -6z"/>
<path d="M7735 8460 c-3 -5 -2 -10 4 -10 5 0 13 5 16 10 3 6 2 10 -4 10 -5 0
-13 -4 -16 -10z"/>
<path d="M0 8435 c0 -21 5 -25 30 -25 34 0 38 10 12 33 -26 24 -42 21 -42 -8z"/>
<path d="M7435 8441 c-4 -13 4 -36 21 -63 15 -24 27 -51 26 -60 0 -10 5 -18
12 -18 27 0 10 106 -22 143 -20 22 -29 22 -37 -2z"/>
<path d="M5852 8438 c-23 -23 -6 -108 21 -108 12 0 33 55 29 78 -4 28 -34 46
-50 30z"/>
<path d="M5245 8333 c-22 -9 -41 -20 -43 -25 -2 -4 -10 -8 -18 -8 -9 0 -14
-11 -14 -34 0 -44 14 -53 42 -26 29 26 103 22 128 -9 22 -26 110 -43 110 -21
0 6 6 10 14 10 8 0 13 8 12 18 -1 11 6 17 19 17 16 0 20 -8 23 -42 2 -36 0
-43 -15 -41 -10 0 -28 0 -41 0 -19 -2 -21 -5 -12 -22 13 -24 23 -25 45 -4 9 9
19 14 22 10 4 -3 15 2 26 11 15 14 35 17 95 16 43 -1 109 4 148 13 65 13 72
17 77 42 9 47 17 45 -308 78 -42 5 -54 2 -73 -16 l-22 -21 -64 36 c-70 39 -92
42 -151 18z"/>
<path d="M7520 8316 c0 -11 10 -16 31 -16 38 0 35 24 -4 28 -19 2 -27 -1 -27
-12z"/>
<path d="M7674 8306 c-5 -14 8 -98 20 -127 5 -11 -4 -28 -28 -52 -43 -44 -77
-55 -108 -33 -32 23 -35 21 -43 -24 -4 -22 -12 -40 -20 -40 -7 0 -18 -7 -26
-16 -10 -13 -10 -17 0 -24 13 -8 111 45 111 60 0 5 7 11 16 14 8 3 13 2 10 -3
-10 -16 37 -20 64 -6 31 16 50 59 43 97 -7 36 5 39 64 18 28 -10 54 -15 57
-12 10 9 7 22 -5 22 -18 0 -43 32 -47 59 -6 50 -8 56 -15 69 -11 17 -86 16
-93 -2z"/>
<path d="M5085 8289 c-11 -6 -27 -24 -34 -40 -8 -19 -18 -28 -27 -25 -8 3 -14
1 -14 -5 0 -5 7 -12 15 -15 8 -4 15 -12 15 -20 0 -8 10 -14 23 -14 43 1 78 48
51 71 -10 8 -12 15 -4 23 12 12 14 36 3 35 -5 0 -17 -5 -28 -10z"/>
<path d="M5982 8265 c-4 -7 -22 -15 -39 -17 -53 -5 -25 -31 34 -32 40 -1 48 2
47 17 -1 13 3 16 16 12 18 -6 47 19 33 28 -17 10 -83 4 -91 -8z"/>
<path d="M6184 8238 c-9 -14 -2 -17 52 -25 44 -6 47 -5 34 9 -18 18 -78 29
-86 16z"/>
<path d="M6396 8242 c-12 -20 125 -134 141 -118 14 14 -11 57 -53 90 -46 35
-77 45 -88 28z"/>
<path d="M7153 8210 c-27 -11 -30 -38 -5 -47 52 -17 102 -47 107 -63 6 -18 8
-18 38 -4 42 20 47 54 9 54 -27 0 -70 20 -44 20 23 0 12 16 -23 33 -40 19 -50
20 -82 7z"/>
<path d="M7535 8130 c-3 -5 -1 -10 4 -10 6 0 11 5 11 10 0 6 -2 10 -4 10 -3 0
-8 -4 -11 -10z"/>
<path d="M6563 8097 c4 -14 57 -29 76 -22 21 8 7 17 -39 25 -28 5 -40 4 -37
-3z"/>
<path d="M5540 8081 c0 -14 -6 -21 -20 -21 -11 0 -20 -4 -20 -10 0 -5 5 -10
10 -10 6 0 10 -6 10 -14 0 -28 24 -35 60 -17 57 27 51 70 -13 86 -23 6 -27 4
-27 -14z"/>
<path d="M6199 8059 c-11 -6 -11 -11 -1 -21 10 -10 15 -9 28 4 13 13 13 16 1
21 -7 3 -20 1 -28 -4z"/>
<path d="M5943 8043 c-13 -2 -24 -7 -24 -11 -6 -32 -5 -52 4 -52 5 0 16 -8 23
-17 12 -17 15 -17 41 -3 22 13 28 23 28 50 0 28 -4 34 -25 35 -14 1 -35 0 -47
-2z"/>
<path d="M5230 8023 c1 -16 28 -43 44 -43 21 0 21 19 -1 36 -20 15 -43 18 -43
7z"/>
<path d="M5847 7999 c-20 -27 -14 -39 19 -39 22 0 24 3 19 23 -11 36 -22 40
-38 16z"/>
<path d="M5297 7922 c-18 -19 -27 -60 -14 -61 34 -3 49 3 64 25 16 25 16 27
-2 40 -24 18 -29 18 -48 -4z"/>
<path d="M6343 7928 c-42 -20 -22 -68 27 -68 30 0 70 25 70 45 0 7 -14 18 -31
24 -37 13 -37 13 -66 -1z"/>
<path d="M5526 7871 c-4 -7 -5 -15 -2 -18 9 -9 19 4 14 18 -4 11 -6 11 -12 0z"/>
<path d="M4702 7682 l-23 -18 26 -28 c36 -39 59 -31 63 22 3 38 1 42 -20 42
-13 0 -33 -8 -46 -18z"/>
<path d="M4790 7696 c0 -10 28 -13 41 -5 10 6 7 9 -13 9 -16 0 -28 -2 -28 -4z"/>
<path d="M4585 7633 c3 -15 10 -30 15 -33 4 -3 13 -32 19 -64 12 -66 24 -80
53 -63 17 10 18 20 13 67 -10 87 -14 96 -49 108 -50 19 -59 16 -51 -15z"/>
<path d="M8659 7466 c-1 -22 -3 -56 -5 -73 -3 -41 9 -50 35 -24 20 20 38 101
27 119 -3 5 -17 12 -31 14 -23 5 -25 2 -26 -36z"/>
<path d="M3899 7404 c-18 -20 -29 -23 -56 -18 -28 5 -33 3 -33 -13 0 -11 18
-34 39 -51 60 -49 96 -40 102 23 6 79 -13 100 -52 59z"/>
<path d="M3724 7306 c-8 -20 1 -32 26 -39 27 -7 27 28 0 43 -16 9 -22 8 -26
-4z"/>
<path d="M8525 7250 c3 -5 11 -10 16 -10 6 0 7 5 4 10 -3 6 -11 10 -16 10 -6
0 -7 -4 -4 -10z"/>
<path d="M8517 7153 c-12 -11 -8 -22 14 -33 31 -17 53 -6 39 20 -10 19 -40 27
-53 13z"/>
<path d="M3355 6941 c-3 -5 0 -13 6 -17 7 -4 9 -3 5 4 -3 5 0 13 6 15 9 4 10
6 1 6 -6 1 -14 -3 -18 -8z"/>
<path d="M8956 6824 c-4 -9 -1 -23 5 -30 14 -17 49 3 49 28 0 23 -45 24 -54 2z"/>
<path d="M9115 6830 c3 -5 15 -10 26 -10 10 0 19 5 19 10 0 6 -12 10 -26 10
-14 0 -23 -4 -19 -10z"/>
<path d="M8975 6630 c-17 -18 -16 -19 9 -26 29 -7 81 20 71 36 -11 17 -61 11
-80 -10z"/>
<path d="M9496 6381 c-33 -36 -13 -58 57 -65 36 -4 74 -3 89 3 25 9 26 13 17
40 -11 32 -32 41 -100 41 -33 0 -51 -6 -63 -19z"/>
<path d="M8842 6247 c-37 -40 -25 -90 17 -67 24 12 35 43 26 70 -8 26 -17 25
-43 -3z"/>
<path d="M9247 6224 c-58 -39 -106 -57 -121 -45 -14 12 -26 5 -26 -15 0 -24
31 -44 70 -44 30 0 43 6 60 28 12 15 38 32 58 37 39 11 55 41 30 56 -20 13
-30 11 -71 -17z"/>
<path d="M8940 6095 c0 -8 -9 -15 -20 -15 -11 0 -20 -3 -20 -8 0 -12 61 -62
76 -62 19 0 18 45 -2 75 -18 28 -34 33 -34 10z"/>
<path d="M9382 6000 c-32 -30 -30 -78 3 -86 45 -11 54 -1 44 48 -13 56 -21 62
-47 38z"/>
<path d="M8787 5963 c-4 -3 -7 -30 -7 -59 0 -37 4 -53 15 -58 21 -8 27 12 21
64 -5 44 -17 66 -29 53z"/>
<path d="M9093 5683 c-21 -8 -15 -40 8 -46 22 -6 35 13 25 38 -6 15 -12 17
-33 8z"/>
<path d="M9822 5678 c6 -18 25 -20 31 -3 5 10 0 15 -14 15 -12 0 -19 -5 -17
-12z"/>
<path d="M9300 5660 c0 -30 28 -36 51 -11 11 11 18 21 17 22 -2 0 -18 3 -35 5
-28 4 -33 2 -33 -16z"/>
<path d="M8976 5629 c-27 -21 -35 -50 -13 -48 18 1 72 69 54 69 -8 0 -26 -9
-41 -21z"/>
<path d="M9685 5500 c-4 -6 6 -10 24 -10 16 0 33 5 36 10 4 6 -6 10 -24 10
-16 0 -33 -4 -36 -10z"/>
<path d="M9239 5412 c-15 -16 -14 -21 9 -72 14 -30 27 -49 29 -43 3 7 10 10
17 7 8 -3 16 4 19 17 9 35 -3 77 -29 94 -28 18 -25 18 -45 -3z"/>
<path d="M9904 5335 c-4 -9 -2 -21 4 -27 6 -6 8 -17 5 -24 -7 -19 7 -71 15
-57 12 19 7 116 -6 121 -7 2 -15 -4 -18 -13z"/>
<path d="M9210 5260 c-18 -13 -22 -22 -14 -30 7 -7 16 -5 28 9 26 28 16 43
-14 21z"/>
<path d="M9467 5105 c32 -14 73 -10 73 6 0 5 -24 9 -52 9 l-53 -1 32 -14z"/>
<path d="M9551 4941 c-22 -14 44 -25 68 -11 12 6 21 13 21 15 0 9 -75 5 -89
-4z"/>
<path d="M9940 4900 c0 -11 -6 -20 -12 -20 -20 0 14 -20 35 -20 12 0 17 8 17
30 0 23 -4 30 -20 30 -13 0 -20 -7 -20 -20z"/>
<path d="M9946 4636 c9 -24 34 -28 34 -6 0 13 -7 20 -20 20 -13 0 -17 -5 -14
-14z"/>
<path d="M9794 4554 c-7 -29 7 -49 30 -41 12 5 13 12 5 37 -13 37 -26 39 -35
4z"/>
<path d="M9796 4111 c-14 -5 -16 -10 -8 -15 16 -9 54 3 47 15 -7 10 -13 10
-39 0z"/>
<path d="M0 1864 c0 -22 3 -23 20 -14 11 6 31 8 45 4 16 -4 25 -2 25 5 0 13
-9 16 -57 25 -30 5 -33 3 -33 -20z"/>
<path d="M18 1823 c7 -3 16 -2 19 1 4 3 -2 6 -13 5 -11 0 -14 -3 -6 -6z"/>
<path d="M0 1569 c0 -11 4 -17 10 -14 5 3 10 13 10 21 0 8 -4 14 -10 14 -5 0
-10 -9 -10 -21z"/>
<path d="M37 1573 c-10 -9 -8 -33 2 -33 5 0 11 9 14 20 5 20 -3 26 -16 13z"/>
<path d="M110 1424 c0 -8 5 -12 10 -9 6 3 10 10 10 16 0 5 -4 9 -10 9 -5 0
-10 -7 -10 -16z"/>
<path d="M106 1209 c-10 -33 -23 -119 -17 -119 3 1 17 10 30 20 20 17 23 26
18 57 -7 41 -24 65 -31 42z"/>
<path d="M353 1025 c4 -5 0 -16 -9 -26 -9 -10 -14 -26 -12 -36 6 -22 -15 -45
-34 -38 -30 12 -98 -97 -98 -153 1 -53 20 -75 54 -62 l27 10 -20 29 c-28 38
-27 68 2 76 48 14 65 28 72 61 3 18 14 39 23 46 22 17 24 89 2 96 -8 3 -12 1
-7 -3z"/>
<path d="M397 1010 c-18 -21 -22 -40 -9 -40 4 0 13 14 19 30 13 36 13 36 -10
10z"/>
<path d="M40 769 c0 -5 5 -7 10 -4 6 3 10 8 10 11 0 2 -4 4 -10 4 -5 0 -10 -5
-10 -11z"/>
<path d="M0 739 c0 -11 4 -17 10 -14 13 8 13 35 0 35 -5 0 -10 -9 -10 -21z"/>
<path d="M0 610 c0 -5 7 -10 15 -10 8 0 15 5 15 10 0 6 -7 10 -15 10 -8 0 -15
-4 -15 -10z"/>
<path d="M3597 573 c-6 -16 -16 -31 -21 -35 -12 -8 59 -22 72 -14 12 7 3 59
-12 68 -19 13 -26 9 -39 -19z"/>
<path d="M3755 487 c4 -22 3 -28 -3 -18 -19 27 -43 4 -40 -36 2 -30 8 -39 28
-44 14 -4 19 -7 12 -8 -21 -2 -3 -21 20 -21 15 0 18 4 13 18 -4 9 -7 22 -6 27
14 93 13 102 -9 108 -19 5 -21 3 -15 -26z"/>
<path d="M3905 494 c-10 -10 -15 -29 -13 -48 3 -29 6 -31 43 -31 33 0 41 4 43
21 3 20 -32 74 -48 74 -5 0 -16 -7 -25 -16z"/>
<path d="M23 472 c-35 -5 -29 -32 7 -32 19 0 30 5 30 14 0 19 -9 23 -37 18z"/>
<path d="M9808 68 c-7 -18 2 -39 13 -32 12 7 12 44 0 44 -5 0 -11 -6 -13 -12z"/>
</g>
</svg>
